<svg xmlns="http://www.w3.org/2000/svg" width="19.218" height="19.206" viewBox="0 0 19.218 19.206">
    <defs>
        <style>
            .cls-1{fill:#303030}
        </style>
    </defs>
    <g id="phone-receiver_2_" data-name="phone-receiver (2)" transform="translate(0 -.188)">
        <g id="Group_39" data-name="Group 39" transform="translate(0 .188)">
            <path id="Path_40" d="M19.209 15.345a.929.929 0 0 1-.285.814l-2.706 2.685a1.523 1.523 0 0 1-.478.346 1.976 1.976 0 0 1-.58.183q-.02 0-.122.01t-.264.01a9.379 9.379 0 0 1-1.251-.132 9.5 9.5 0 0 1-2.116-.651 17.76 17.76 0 0 1-2.838-1.556 21.16 21.16 0 0 1-3.377-2.848 22.294 22.294 0 0 1-2.36-2.686 19.134 19.134 0 0 1-1.506-2.37 12.766 12.766 0 0 1-.855-1.973 10.47 10.47 0 0 1-.386-1.526A5.039 5.039 0 0 1 0 4.644q.02-.366.02-.407a1.978 1.978 0 0 1 .183-.58 1.525 1.525 0 0 1 .346-.478L3.259.473A.9.9 0 0 1 3.91.188a.759.759 0 0 1 .468.153 1.414 1.414 0 0 1 .346.376L6.9 4.847a.99.99 0 0 1 .1.712 1.268 1.268 0 0 1-.346.651l-1 1a.339.339 0 0 0-.071.132.5.5 0 0 0-.031.153 3.674 3.674 0 0 0 .366.977 8.965 8.965 0 0 0 .753 1.19 13.215 13.215 0 0 0 1.444 1.617 13.476 13.476 0 0 0 1.628 1.455 9.4 9.4 0 0 0 1.19.763 3.163 3.163 0 0 0 .732.295l.254.051a.485.485 0 0 0 .132-.031.34.34 0 0 0 .132-.071l1.16-1.18a1.246 1.246 0 0 1 .855-.325 1.063 1.063 0 0 1 .549.122h.02l3.933 2.316a1.023 1.023 0 0 1 .509.671z" class="cls-1" data-name="Path 40" transform="translate(0 -.188)"/>
        </g>
    </g>
</svg>
