<svg xmlns="http://www.w3.org/2000/svg" xmlns:xlink="http://www.w3.org/1999/xlink" width="256.667" height="256.667" viewBox="0 0 256.667 256.667"><defs><filter id="a" x="0" y="0" width="256.667" height="256.667" filterUnits="userSpaceOnUse"><feOffset dy="3" input="SourceAlpha"/><feGaussianBlur stdDeviation="3" result="b"/><feFlood flood-opacity="0.161"/><feComposite operator="in" in2="b"/><feComposite in="SourceGraphic"/></filter></defs><g transform="translate(-213 -182)"><g transform="matrix(1, 0, 0, 1, 213, 182)" filter="url(#a)"><circle cx="119.333" cy="119.333" r="119.333" transform="translate(9 6)" fill="#fff"/></g><g transform="translate(271.137 244.157)"><g transform="translate(0 0)"><path d="M121.028,57.051l-14.668-.077L92.306,36.009a4.648,4.648,0,0,0-3.84-2.15H50.607a4.629,4.629,0,0,0-3.763,2.073L32.331,56.974l-13.593.077A18.813,18.813,0,0,0,0,75.788v60.591A18.945,18.945,0,0,0,18.738,155.27h102.29a18.945,18.945,0,0,0,18.738-18.891V75.788A18.812,18.812,0,0,0,121.028,57.051Zm9.523,79.328a9.7,9.7,0,0,1-9.522,9.676H18.738a9.7,9.7,0,0,1-9.522-9.676V75.788a9.57,9.57,0,0,1,9.522-9.522h16.05a4.629,4.629,0,0,0,3.763-2.073L53.065,43.151H86.01L99.986,64.039a4.74,4.74,0,0,0,3.763,2.073l17.2.154a9.57,9.57,0,0,1,9.522,9.522v60.591h.077Z" transform="translate(0 -33.859)" fill="#ff9f56"/><path d="M171.47,160.225a32.638,32.638,0,1,0,32.638,32.637A32.659,32.659,0,0,0,171.47,160.225Zm0,56.059a23.422,23.422,0,1,1,23.422-23.422A23.466,23.466,0,0,1,171.47,216.285Z" transform="translate(-101.204 -125.975)" fill="#ff9f56"/><circle cx="1.766" cy="1.766" r="1.766" transform="translate(112.196 46)" fill="#ff9f56"/><path d="M403.324,186.575a6.374,6.374,0,1,0,6.374,6.374A6.358,6.358,0,0,0,403.324,186.575Zm0,9.215a2.835,2.835,0,0,1-2.842-2.841,2.841,2.841,0,0,1,5.683,0A2.835,2.835,0,0,1,403.324,195.79Z" transform="translate(-289.362 -145.183)" fill="#ff9f56"/></g></g></g></svg>