<svg xmlns="http://www.w3.org/2000/svg" id="photo-camera_1_" width="16.397" height="14.244" data-name="photo-camera (1)" viewBox="0 0 16.397 14.244">
    <defs>
        <style>
            .cls-1{fill:#ff9f56}
        </style>
    </defs>
    <g id="Group_35" data-name="Group 35">
        <path id="Path_33" d="M14.2 36.58l-1.721-.009-1.649-2.46a.545.545 0 0 0-.45-.252H5.937a.543.543 0 0 0-.437.241l-1.7 2.469-1.6.011a2.207 2.207 0 0 0-2.2 2.2v7.108A2.223 2.223 0 0 0 2.2 48.1h12a2.223 2.223 0 0 0 2.2-2.216v-7.106a2.207 2.207 0 0 0-2.2-2.198zm1.117 9.307a1.138 1.138 0 0 1-1.117 1.135h-12a1.138 1.138 0 0 1-1.117-1.135v-7.109A1.123 1.123 0 0 1 2.2 37.661h1.881a.543.543 0 0 0 .441-.243l1.7-2.469h3.865L11.73 37.4a.556.556 0 0 0 .441.243l2.018.018a1.123 1.123 0 0 1 1.117 1.117v7.108h.009z" class="cls-1" data-name="Path 33" transform="translate(0 -33.859)"/>
        <path id="Path_34" d="M142.662 160.225a3.829 3.829 0 1 0 3.829 3.829 3.832 3.832 0 0 0-3.829-3.829zm0 6.577a2.748 2.748 0 1 1 2.748-2.748 2.753 2.753 0 0 1-2.748 2.746z" class="cls-1" data-name="Path 34" transform="translate(-134.418 -156.207)"/>
        <circle id="Ellipse_8" cx=".207" cy=".207" r=".207" class="cls-1" data-name="Ellipse 8" transform="translate(13.163 5.397)"/>
        <path id="Path_35" d="M397.7 186.575a.748.748 0 1 0 .748.748.746.746 0 0 0-.748-.748zm0 1.081a.333.333 0 0 1-.333-.333.333.333 0 0 1 .667 0 .333.333 0 0 1-.334.333z" class="cls-1" data-name="Path 35" transform="translate(-384.328 -181.719)"/>
    </g>
</svg>
