<svg xmlns="http://www.w3.org/2000/svg" width="11" height="14.759" viewBox="0 0 11 14.759">
    <defs>
        <style>
            .cls-1{fill:#303030}
        </style>
    </defs>
    <g id="rubbish-bin" transform="translate(-52.016)">
        <g id="Group_92" data-name="Group 92" transform="translate(52.016)">
            <path id="Path_197" d="M74.538 109.921a.743.743 0 0 0 .742.712h6.934a.743.743 0 0 0 .742-.712l.5-10.453h-9.413zm5.778-7.857a.3.3 0 0 1 .3-.3h.484a.3.3 0 0 1 .3.3v5.972a.3.3 0 0 1-.3.3h-.483a.3.3 0 0 1-.3-.3zm-2.111 0a.3.3 0 0 1 .3-.3h.483a.3.3 0 0 1 .3.3v5.972a.3.3 0 0 1-.3.3h-.483a.3.3 0 0 1-.3-.3v-5.972zm-2.112 0a.3.3 0 0 1 .3-.3h.483a.3.3 0 0 1 .3.3v5.972a.3.3 0 0 1-.3.3h-.483a.3.3 0 0 1-.3-.3z" class="cls-1" data-name="Path 197" transform="translate(-73.247 -95.874)"/>
            <path id="Path_198" d="M62.55.76h-3.2v-.6A.156.156 0 0 0 59.2 0h-3.364a.156.156 0 0 0-.156.156v.6h-3.2a.466.466 0 0 0-.466.466v1.469h11V1.226A.466.466 0 0 0 62.55.76z" class="cls-1" data-name="Path 198" transform="translate(-52.016)"/>
        </g>
    </g>
</svg>
