<svg xmlns="http://www.w3.org/2000/svg" width="26.6" height="19" viewBox="0 0 26.6 19">
    <defs>
        <style>
            .cls-1{fill:#303030}
        </style>
    </defs>
    <g id="close-envelope" transform="translate(0 -2)">
        <g id="Group_36" data-name="Group 36" transform="translate(0 2)">
            <path id="Path_36" d="M13.016 10.364l-3.291-2.88L.316 15.55a1.926 1.926 0 0 0 1.313.515H24.4a1.912 1.912 0 0 0 1.307-.515l-9.4-8.066z" class="cls-1" data-name="Path 36" transform="translate(.284 2.936)"/>
            <path id="Path_37" d="M25.713 2.515A1.914 1.914 0 0 0 24.4 2H1.627a1.906 1.906 0 0 0-1.309.519L13.014 13.4z" class="cls-1" data-name="Path 37" transform="translate(.286 -2)"/>
            <path id="Path_38" d="M0 2.878v15.785l9.183-7.8z" class="cls-1" data-name="Path 38" transform="translate(0 -1.21)"/>
            <path id="Path_39" d="M9.167 10.863l9.183 7.8V2.875z" class="cls-1" data-name="Path 39" transform="translate(8.25 -1.212)"/>
        </g>
    </g>
</svg>
