<svg xmlns="http://www.w3.org/2000/svg" width="50.024" height="57" viewBox="0 0 50.024 57">
    <defs>
        <style>
            .cls-1{fill:#fff}.cls-2{fill:#ff9f56}.cls-3{fill:#cc7350}.cls-4{fill:#303030}
        </style>
    </defs>
    <g id="forgot">
        <path id="Path_11" d="M268.1 329.807a.41.41 0 1 0-.292-.12.411.411 0 0 0 .292.12zm0-13.807a8.643 8.643 0 1 1-8.636 8.636A8.643 8.643 0 0 1 268.1 316zm0 0" class="cls-1" data-name="Path 11" transform="translate(-227.45 -277.013)"/>
        <path id="Path_12" d="M22.406 174.141a.7.7 0 1 0-.7-.7.7.7 0 0 0 .7.7zm-7.093 0a.7.7 0 1 0-.7-.7.7.7 0 0 0 .7.7zm14.187 0a.7.7 0 1 0-.7-.7.7.7 0 0 0 .7.7zm7.093 0a.7.7 0 1 0-.7-.7.7.7 0 0 0 .7.7zm6.846-16.122a2.469 2.469 0 0 1 2.468 2.468v17.023a8.643 8.643 0 0 0-8.279 11.1H8.467A2.467 2.467 0 0 1 6 186.146v-25.66a2.469 2.469 0 0 1 2.468-2.468zm0 0" class="cls-2" data-name="Path 12" transform="translate(-5.26 -138.523)"/>
        <path id="Path_13" d="M195.206 24.622v.133h-2.661V13.981a5.327 5.327 0 0 0-5.32-5.322H183.9V6h3.326a7.982 7.982 0 0 1 7.981 7.981zm0 0" class="cls-1" data-name="Path 13" transform="translate(-161.21 -5.26)"/>
        <path id="Path_14" d="M151.559 6h3.99v2.66h-3.99zm0 0" class="cls-3" data-name="Path 14" transform="translate(-132.861 -5.26)"/>
        <path id="Path_15" d="M62.571 24.622v.133H59.91V13.981A7.982 7.982 0 0 1 67.892 6h3.326v2.66h-3.326a5.327 5.327 0 0 0-5.32 5.322zm0 0" class="cls-1" data-name="Path 15" transform="translate(-52.519 -5.26)"/>
        <g id="Group_10" data-name="Group 10">
            <path id="Path_16" d="M26.015 0H15.373a8.731 8.731 0 0 0-8.722 8.722v10.033H3.207A3.212 3.212 0 0 0 0 21.963v25.66a3.211 3.211 0 0 0 3.208 3.208h28.629a9.466 9.466 0 0 0 3.155 4.269 9.376 9.376 0 1 0 6.4-16.825V21.963a3.211 3.211 0 0 0-3.208-3.208h-3.448V8.721A8.731 8.731 0 0 0 26.015 0zm7.241 8.722v10.033h-1.181V8.722a6.068 6.068 0 0 0-6.06-6.062h-2.586V1.48h2.586a7.249 7.249 0 0 1 7.241 7.241zM19.439 2.66V1.48h2.509v1.18zm6.576 1.48a4.586 4.586 0 0 1 4.58 4.581v10.034h-19.8V8.722a4.586 4.586 0 0 1 4.58-4.581zM8.131 8.722a7.249 7.249 0 0 1 7.242-7.242h2.586v1.18h-2.586a6.068 6.068 0 0 0-6.06 6.062v10.033H8.131zm40.412 38.9a7.9 7.9 0 1 1-7.9-7.9 7.9 7.9 0 0 1 7.901 7.901zm-8.636-25.66v16.316a9.38 9.38 0 0 0-8.477 11.073H3.207a1.729 1.729 0 0 1-1.727-1.728v-25.66a1.729 1.729 0 0 1 1.727-1.727H38.18a1.729 1.729 0 0 1 1.727 1.727zm0 0" class="cls-4" data-name="Path 16"/>
            <path id="Path_17" d="M128.748 274.22a1.441 1.441 0 1 0-1.44-1.441 1.441 1.441 0 0 0 1.44 1.441zm0-1.481a.037.037 0 0 1 .028.011.039.039 0 0 1 .012.028.04.04 0 1 1-.08 0 .039.039 0 0 1 .012-.028.037.037 0 0 1 .028-.01zm0 0" class="cls-1" data-name="Path 17" transform="translate(-111.601 -237.862)"/>
            <path id="Path_18" d="M186.241 274.22a1.441 1.441 0 1 0-1.441-1.441 1.44 1.44 0 0 0 1.441 1.441zm0-1.481a.037.037 0 0 1 .028.011.042.042 0 0 1 .012.028.04.04 0 0 1-.04.04.04.04 0 0 1-.04-.04.042.042 0 0 1 .012-.028.038.038 0 0 1 .028-.01zm0 0" class="cls-1" data-name="Path 18" transform="translate(-162 -237.862)"/>
            <path id="Path_19" d="M243.741 274.22a1.441 1.441 0 1 0-1.44-1.441 1.44 1.44 0 0 0 1.44 1.441zm0-1.481a.04.04 0 0 1 .041.04.041.041 0 0 1-.012.029.042.042 0 0 1-.029.012.038.038 0 0 1-.028-.012.041.041 0 0 1 0-.057.037.037 0 0 1 .028-.011zm0 0" class="cls-1" data-name="Path 19" transform="translate(-212.407 -237.862)"/>
            <path id="Path_20" d="M71.25 274.22a1.441 1.441 0 1 0-1.441-1.441 1.441 1.441 0 0 0 1.441 1.441zm0-1.481a.038.038 0 0 1 .04.04.037.037 0 0 1-.011.028.039.039 0 0 1-.028.012.04.04 0 0 1-.04-.04.038.038 0 0 1 .012-.028.037.037 0 0 1 .027-.011zm0 0" class="cls-1" data-name="Path 20" transform="translate(-61.196 -237.862)"/>
            <path id="Path_21" d="M303.461 341.3a.74.74 0 0 0 1.481 0 1.727 1.727 0 1 1 2.592 1.495 3.275 3.275 0 0 0-1.605 2.837v1.068a.74.74 0 0 0 1.481 0v-1.071a1.79 1.79 0 0 1 .867-1.556 3.208 3.208 0 1 0-4.816-2.776zm0 0" class="cls-2" data-name="Path 21" transform="translate(-266.021 -296.377)"/>
            <path id="Path_22" d="M321.28 415.25a1.151 1.151 0 1 0 1.151 1.151 1.151 1.151 0 0 0-1.151-1.151zm0 1.48a.329.329 0 1 1 .328-.33.33.33 0 0 1-.328.331zm0 0" class="cls-2" data-name="Path 22" transform="translate(-280.633 -364.018)"/>
        </g>
    </g>
</svg>
