<svg xmlns="http://www.w3.org/2000/svg" width="14.141" height="19.206" viewBox="0 0 14.141 19.206">
    <defs>
        <style>
            .cls-1{fill:#303030}
        </style>
    </defs>
    <g id="placeholder-filled-point" transform="translate(-12.883)">
        <path id="Path_41" d="M19.953 0a7.079 7.079 0 0 0-7.07 7.071 6.9 6.9 0 0 0 .617 2.886 44.582 44.582 0 0 0 6.154 9.112.394.394 0 0 0 .6 0 44.6 44.6 0 0 0 6.154-9.112 6.894 6.894 0 0 0 .618-2.886A7.079 7.079 0 0 0 19.953 0zm0 10.743a3.673 3.673 0 1 1 3.673-3.673 3.677 3.677 0 0 1-3.673 3.673z" class="cls-1" data-name="Path 41"/>
    </g>
</svg>
