<svg xmlns="http://www.w3.org/2000/svg" width="172.115" height="149.508" viewBox="0 0 172.115 149.508">
    <defs>
        <style>
            .cls-1,.cls-10,.cls-15,.cls-2{fill:#ff9f56}.cls-1,.cls-19,.cls-4{opacity:.1}.cls-2{opacity:.25}.cls-3{fill:#464a5f}.cls-5{fill:#65617d}.cls-6{fill:#d1d9ec}.cls-7{fill:#53526b}.cls-8{fill:#b65256}.cls-9{fill:#ffd77c}.cls-10{opacity:.3}.cls-11{fill:url(#linear-gradient)}.cls-12{fill:#4c495a}.cls-13{fill:#5f5d7e}.cls-14{fill:#fdc2cc}.cls-16{fill:#dfe6f5}.cls-17{fill:#fff}.cls-18{fill:#865a61}.cls-20{fill:#535461}.cls-21{fill:#9d9cb5}.cls-22{fill:none;stroke:#ffe7d4;stroke-miterlimit:10}
        </style>
        <linearGradient id="linear-gradient" x1=".5" x2=".5" y1="1" gradientUnits="objectBoundingBox">
            <stop offset="0" stop-color="gray" stop-opacity=".251"/>
            <stop offset=".54" stop-color="gray" stop-opacity=".122"/>
            <stop offset="1" stop-color="gray" stop-opacity=".102"/>
        </linearGradient>
    </defs>
    <g id="undraw_chef_lbjx" transform="translate(-.031 .008)">
        <ellipse id="Ellipse_9" cx="59.109" cy="2.107" class="cls-1" data-name="Ellipse 9" rx="59.109" ry="2.107" transform="translate(9.768 134.309)"/>
        <path id="Path_44" d="M181.31 46.16c5.825-5.19 14.969-6.248 23.292-5.838 26.143 1.3 49.743 13.92 70.156 28.2 7.389 5.168 14.664 10.738 19.462 17.855 9.764 14.489 6.867 34.559-6.706 46.5-4.619 4.059-10.216 7.173-15.97 9.932-10.216 4.908-21.252 8.846-32.853 9.968a108.272 108.272 0 0 1-24.875-.967c-22.992-3.121-45.542-10.014-64.449-21.8-8.292-5.172-16.107-11.6-19.521-19.968s-1.233-18.968 7.232-23.919c3.5-2.049 7.69-2.974 11.789-3.842 6.033-1.281 12.163-2.544 17.607-5.143 5.625-2.684 12.283-7.876 11.171-13.818-1.195-6.376-2.145-11.975 3.665-17.16z" class="cls-2" data-name="Path 44" transform="translate(-128.27 -40.25)"/>
        <ellipse id="Ellipse_10" cx="15.808" cy="3.185" class="cls-1" data-name="Ellipse 10" rx="15.808" ry="3.185" transform="translate(7.34 143.129)"/>
        <ellipse id="Ellipse_11" cx="15.808" cy="1.399" class="cls-1" data-name="Ellipse 11" rx="15.808" ry="1.399" transform="translate(140.531 136.596)"/>
        <path id="Rectangle_26" d="M0 0h46.844v10.35H0z" class="cls-3" data-name="Rectangle 26" transform="translate(46.864 29.22)"/>
        <path id="Rectangle_27" d="M0 0h46.844v.268H0z" class="cls-4" data-name="Rectangle 27" transform="translate(46.864 29.22)"/>
        <path id="Rectangle_28" d="M0 0h51.617v22.918H0z" class="cls-5" data-name="Rectangle 28" transform="translate(44.58 6.3)"/>
        <path id="Path_45" d="M123.239 34.57h19.984v48.459H119.7V38.115a3.539 3.539 0 0 1 3.539-3.539z" class="cls-5" data-name="Path 45" transform="translate(-97.837 -28.27)"/>
        <path id="Rectangle_29" d="M0 0h17.003v42.88H0z" class="cls-4" data-name="Rectangle 29" transform="translate(25.392 9.358)"/>
        <path id="Rectangle_30" d="M0 0h17.003v42.88H0z" class="cls-6" data-name="Rectangle 30" transform="translate(25.124 9.09)"/>
        <circle id="Ellipse_12" cx="1.731" cy="1.731" r="1.731" class="cls-4" data-name="Ellipse 12" transform="translate(40.395 48.055)"/>
        <circle id="Ellipse_13" cx="1.731" cy="1.731" r="1.731" class="cls-3" data-name="Ellipse 13" transform="translate(40.395 47.785)"/>
        <path id="Path_46" d="M520.15 34.57h19.8a3.722 3.722 0 0 1 3.72 3.727v44.732h-23.52z" class="cls-5" data-name="Path 46" transform="translate(-425.23 -28.27)"/>
        <path id="Rectangle_31" d="M0 0h17.003v42.88H0z" class="cls-4" data-name="Rectangle 31" transform="translate(98.448 9.358)"/>
        <path id="Rectangle_32" d="M0 0h17.003v42.88H0z" class="cls-6" data-name="Rectangle 32" transform="translate(98.18 9.09)"/>
        <circle id="Ellipse_14" cx="1.731" cy="1.731" r="1.731" class="cls-4" data-name="Ellipse 14" transform="translate(113.454 48.055)"/>
        <circle id="Ellipse_15" cx="1.731" cy="1.731" r="1.731" class="cls-3" data-name="Ellipse 15" transform="translate(113.454 47.785)"/>
        <path id="Rectangle_33" d="M0 0h18.364v18.364H0z" class="cls-4" data-name="Rectangle 33" transform="translate(48.747 9.358)"/>
        <path id="Rectangle_34" d="M0 0h18.364v18.364H0z" class="cls-6" data-name="Rectangle 34" transform="translate(48.479 9.09)"/>
        <circle id="Ellipse_16" cx="1.109" cy="1.109" r="1.109" class="cls-4" data-name="Ellipse 16" transform="translate(65.734 26.615)"/>
        <circle id="Ellipse_17" cx="1.109" cy="1.109" r="1.109" class="cls-3" data-name="Ellipse 17" transform="translate(65.734 26.346)"/>
        <path id="Rectangle_35" d="M0 0h18.364v18.364H0z" class="cls-4" data-name="Rectangle 35" transform="rotate(180 45.612 13.862)"/>
        <path id="Rectangle_36" d="M0 0h18.364v18.364H0z" class="cls-6" data-name="Rectangle 36" transform="rotate(180 45.746 13.728)"/>
        <circle id="Ellipse_18" cx="1.109" cy="1.109" r="1.109" class="cls-4" data-name="Ellipse 18" transform="translate(72.019 26.615)"/>
        <circle id="Ellipse_19" cx="1.109" cy="1.109" r="1.109" class="cls-3" data-name="Ellipse 19" transform="translate(72.019 26.346)"/>
        <path id="Rectangle_37" d="M0 0h.739v22.918H0z" class="cls-4" data-name="Rectangle 37" transform="translate(69.649 6.3)"/>
        <path id="Rectangle_38" d="M0 0h3.092v.941H0z" class="cls-4" data-name="Rectangle 38" transform="translate(48.479 37.957)"/>
        <path id="Rectangle_39" d="M0 0h3.092v.941H0z" class="cls-7" data-name="Rectangle 39" transform="translate(48.479 37.687)"/>
        <path id="Rectangle_40" d="M0 0h16.197v2.083H0z" class="cls-4" data-name="Rectangle 40" transform="translate(71.196 36.813)"/>
        <path id="Rectangle_41" d="M0 0h16.197v2.083H0z" class="cls-7" data-name="Rectangle 41" transform="translate(71.196 36.545)"/>
        <circle id="Ellipse_20" cx=".403" cy=".403" r=".403" class="cls-4" data-name="Ellipse 20" transform="translate(80.044 37.451)"/>
        <circle id="Ellipse_21" cx=".403" cy=".403" r=".403" class="cls-8" data-name="Ellipse 21" transform="translate(80.044 37.183)"/>
        <circle id="Ellipse_22" cx=".403" cy=".403" r=".403" class="cls-4" data-name="Ellipse 22" transform="translate(82.352 37.451)"/>
        <circle id="Ellipse_23" cx=".403" cy=".403" r=".403" class="cls-9" data-name="Ellipse 23" transform="translate(82.352 37.183)"/>
        <path id="Rectangle_42" d="M0 0h107.265v45.702H0z" class="cls-5" data-name="Rectangle 42" transform="translate(16.522 85.797)"/>
        <path id="Rectangle_43" d="M0 0h107.265v.941H0z" class="cls-4" data-name="Rectangle 43" transform="translate(16.522 85.797)"/>
        <path id="Rectangle_44" d="M0 0h110.089v2.419H0z" class="cls-5" data-name="Rectangle 44" transform="translate(15.11 84.049)"/>
        <path id="Rectangle_45" d="M0 0h110.089v.403H0z" class="cls-4" data-name="Rectangle 45" transform="translate(15.11 84.049)"/>
        <path id="Rectangle_46" d="M0 0h114.167v.806H0z" class="cls-5" data-name="Rectangle 46" transform="translate(13.07 83.378)"/>
        <path id="Rectangle_47" d="M0 0h23.523v7.259H0z" class="cls-4" data-name="Rectangle 47" transform="translate(19.948 87.41)"/>
        <path id="Rectangle_48" d="M0 0h23.523v7.259H0z" class="cls-6" data-name="Rectangle 48" transform="translate(20.218 87.142)"/>
        <path id="Rectangle_49" d="M0 0h23.523v14.719H0z" class="cls-4" data-name="Rectangle 49" transform="translate(19.948 97.962)"/>
        <path id="Rectangle_50" d="M0 0h23.523v14.719H0z" class="cls-6" data-name="Rectangle 50" transform="translate(20.218 97.692)"/>
        <path id="Rectangle_51" d="M0 0h23.523v14.719H0z" class="cls-4" data-name="Rectangle 51" transform="translate(19.948 114.897)"/>
        <path id="Rectangle_52" d="M0 0h23.523v14.719H0z" class="cls-6" data-name="Rectangle 52" transform="translate(20.218 114.629)"/>
        <path id="Rectangle_53" d="M0 0h6.721v1.345H0z" class="cls-4" data-name="Rectangle 53" transform="translate(28.349 90.367)"/>
        <path id="Rectangle_54" d="M0 0h6.721v1.345H0z" class="cls-3" data-name="Rectangle 54" transform="translate(28.349 90.099)"/>
        <path id="Rectangle_55" d="M0 0h23.523v7.259H0z" class="cls-4" data-name="Rectangle 55" transform="translate(99.121 87.41)"/>
        <path id="Rectangle_56" d="M0 0h23.523v7.259H0z" class="cls-6" data-name="Rectangle 56" transform="translate(99.39 87.142)"/>
        <path id="Rectangle_57" d="M0 0h23.523v31.589H0z" class="cls-6" data-name="Rectangle 57" transform="translate(99.39 96.82)"/>
        <path id="Rectangle_58" d="M0 0h6.721v1.345H0z" class="cls-3" data-name="Rectangle 58" transform="translate(107.523 90.099)"/>
        <path id="Rectangle_59" d="M0 0h6.721v1.345H0z" class="cls-4" data-name="Rectangle 59" transform="translate(28.349 104.951)"/>
        <path id="Rectangle_60" d="M0 0h6.721v1.345H0z" class="cls-3" data-name="Rectangle 60" transform="translate(28.349 104.683)"/>
        <path id="Rectangle_61" d="M0 0h6.721v1.345H0z" class="cls-4" data-name="Rectangle 61" transform="translate(28.349 120.544)"/>
        <path id="Rectangle_62" d="M0 0h6.721v1.345H0z" class="cls-3" data-name="Rectangle 62" transform="translate(28.349 120.276)"/>
        <path id="Rectangle_63" d="M0 0h17.138v25.472H0z" class="cls-4" data-name="Rectangle 63" transform="translate(102.85 100.146)"/>
        <path id="Rectangle_64" d="M0 0h17.138v25.472H0z" class="cls-10" data-name="Rectangle 64" transform="translate(102.582 99.877)"/>
        <path id="Rectangle_65" d="M0 0h110.089v4.57H0z" class="cls-4" data-name="Rectangle 65" transform="translate(15.11 131.048)"/>
        <path id="Rectangle_66" d="M0 0h110.089v4.57H0z" class="cls-5" data-name="Rectangle 66" transform="translate(15.11 131.231)"/>
        <path id="Rectangle_67" d="M0 0h51.617v33.269H0z" class="cls-3" data-name="Rectangle 67" transform="translate(45.757 89.504)"/>
        <path id="Path_47" d="M382.25 545.63s28.967 2.957 50.2.133v2.622a238.536 238.536 0 0 1-50.2-.471z" class="cls-4" data-name="Path 47" transform="translate(-335.889 -453.437)"/>
        <path id="Path_48" d="M382.25 544.15s28.967 2.957 50.2.135v2.622a238.686 238.686 0 0 1-50.2-.471z" class="cls-6" data-name="Path 48" transform="translate(-335.889 -452.227)"/>
        <path id="Rectangle_68" d="M0 0h39.99v19.021H0z" class="cls-10" data-name="Rectangle 68" transform="translate(51.569 98.308)"/>
        <path id="Rectangle_69" d="M0 0h51.617v1.009H0z" class="cls-4" data-name="Rectangle 69" transform="translate(45.757 89.504)"/>
        <path id="Rectangle_70" d="M0 0h53.229v7.662H0z" class="cls-3" data-name="Rectangle 70" transform="translate(44.951 82.582)"/>
        <circle id="Ellipse_24" cx="1.948" cy="1.948" r="1.948" class="cls-4" data-name="Ellipse 24" transform="translate(47.37 84.128)"/>
        <circle id="Ellipse_25" cx="1.948" cy="1.948" r="1.948" class="cls-6" data-name="Ellipse 25" transform="translate(47.37 83.859)"/>
        <circle id="Ellipse_26" cx="1.948" cy="1.948" r="1.948" class="cls-4" data-name="Ellipse 26" transform="translate(52.142 84.128)"/>
        <circle id="Ellipse_27" cx="1.948" cy="1.948" r="1.948" class="cls-6" data-name="Ellipse 27" transform="translate(52.142 83.859)"/>
        <circle id="Ellipse_28" cx="1.948" cy="1.948" r="1.948" class="cls-4" data-name="Ellipse 28" transform="translate(87.225 84.128)"/>
        <circle id="Ellipse_29" cx="1.948" cy="1.948" r="1.948" class="cls-6" data-name="Ellipse 29" transform="translate(87.225 83.859)"/>
        <circle id="Ellipse_30" cx="1.948" cy="1.948" r="1.948" class="cls-4" data-name="Ellipse 30" transform="translate(91.997 84.128)"/>
        <circle id="Ellipse_31" cx="1.948" cy="1.948" r="1.948" class="cls-6" data-name="Ellipse 31" transform="translate(91.997 83.859)"/>
        <path id="Rectangle_71" d="M0 0h14.854v4.638H0z" class="cls-4" data-name="Rectangle 71" transform="translate(63.904 83.925)"/>
        <path id="Rectangle_72" d="M0 0h14.383v4.638H0z" class="cls-7" data-name="Rectangle 72" transform="translate(64.172 83.657)"/>
        <path id="Rectangle_73" d="M0 0h.538v4.738H0z" class="cls-4" data-name="Rectangle 73" transform="translate(49.318 83.438)"/>
        <path id="Rectangle_74" d="M0 0h.538v4.738H0z" class="cls-7" data-name="Rectangle 74" transform="translate(49.05 83.438)"/>
        <path id="Rectangle_75" d="M0 0h.538v4.738H0z" class="cls-4" data-name="Rectangle 75" transform="translate(93.946 83.438)"/>
        <path id="Rectangle_76" d="M0 0h.538v4.738H0z" class="cls-7" data-name="Rectangle 76" transform="translate(93.678 83.438)"/>
        <path id="Rectangle_77" d="M0 0h.538v4.738H0z" class="cls-4" data-name="Rectangle 77" transform="rotate(45 -56.323 151.542)"/>
        <path id="Rectangle_78" d="M0 0h.538v4.738H0z" class="cls-7" data-name="Rectangle 78" transform="rotate(45 -55.999 151.407)"/>
        <path id="Rectangle_79" d="M0 0h.538v4.738H0z" class="cls-4" data-name="Rectangle 79" transform="rotate(90 -14.675 71.134)"/>
        <path id="Rectangle_80" d="M0 0h.538v4.738H0z" class="cls-7" data-name="Rectangle 80" transform="rotate(90 -14.539 71)"/>
        <path id="Rectangle_81" d="M0 0h51.617v.784H0z" class="cls-4" data-name="Rectangle 81" transform="translate(45.757 121.987)"/>
        <path id="Rectangle_82" d="M0 0h53.229v13.688H0z" class="cls-3" data-name="Rectangle 82" transform="translate(44.951 122.257)"/>
        <path id="Path_49" d="M199.213 257.187c-.257-.5-1.618-3.6-1.618-3.6l-2.279-5.907a16.885 16.885 0 0 1-1.618-2.954c0-.463-2.943-2.313-2.943-2.313s-2.39-.712-2.574-.783-3.016-1.009-3.016-1.009-1.115-1.459-1.277-1.082l-.016-.027a3.777 3.777 0 0 1-.425-1.372 1.137 1.137 0 0 0-.018-.131 5.455 5.455 0 0 0 2.4-4.493 5.528 5.528 0 0 0-.038-.693.4.4 0 0 1 .062-.033c.046-.02.035-.036 0-.053l.035-.016c.062-.027.022-.047-.038-.071.084-.036-.022-.06-.106-.1a.345.345 0 0 0-.015-.073.438.438 0 0 0 .035-.146l.022.011a.6.6 0 0 0 0-.279.32.32 0 0 1-.018.055.715.715 0 0 0-.058-.255.73.73 0 0 0-.155-.166l-.015-.011.157-1.6c2.3-.109 2.7-4.014 2.178-4.238s0-.69 0-1.631-1.735-1.992-1.735-1.992-.73.365-1.855-1.449-5.291-2.1-5.568-1.631-2.138 1.095-4.561 1.775-1.976 3.55-1.573 4.167a3.514 3.514 0 0 1 .566 1.7 9.885 9.885 0 0 0 .766 1.883c-.243.527.365 3.415.547 4.236v.077q-.013.019-.024.04a.471.471 0 0 0-.036.274.562.562 0 0 0 .04.3 5.435 5.435 0 0 0 1.925 4.05.834.834 0 0 0 .009.15c.033.671.053 1.46.018 2.222v.115a.878.878 0 0 0-.617.485c-.228.44-1.551 1.115-1.551 1.115s-2.317.108-2.538.535-3.567 1.85-3.567 1.85-1.766 1.033-1.509 2.207a4.248 4.248 0 0 1-.633 2.337 11.194 11.194 0 0 0-2.54-.633l1.875 1.793-.062.1-1.067 3.773a5.2 5.2 0 0 1-.73 1.642c-.365.325.33 3.238.33 3.238a13.885 13.885 0 0 1-.73 2.6c-.327.533.514 1.852.514 1.852l1.693 3.842 4.471 1.135.781.166c-.015.091-.029.182-.046.275a6.182 6.182 0 0 1-.846 2.654c-.845.748-.808 4.092-.808 4.092l.036 4.734s.294 5.838.148 6.05c-.093.135.093.354.584.547l-.04.268a4.568 4.568 0 0 0 .117 2.554 1.948 1.948 0 0 1 .221.854 4 4 0 0 0 .7 1.425s-.547 3.95.365 5.3 1.691 3.807 1.25 4.378c0 0-.772 1.673-.4 2.421a.871.871 0 0 1-.48 1.352c-.48.177-.436 1.642-.436 1.642l.878 6.933s.478 1.425.075 1.923a5.067 5.067 0 0 0 .221 3.844c.626.856-.888 2.436-.888 2.436s-.912 1.317.547 1.744c0 0 .294.071-.257.64s-.662 1.277-.294 1.531a1.9 1.9 0 0 0 .239.119c-.015.084-.029.171-.047.265a4.449 4.449 0 0 1-.89 2.178 15.526 15.526 0 0 0-2.408 3.209c-.505.958-.73 1.852-.166 2.273a4.613 4.613 0 0 0 4.014.925 11.091 11.091 0 0 0 2.39-1.6l.332-1.388s-.221-.854.881-1.175a5.687 5.687 0 0 0 2.133-1.46v-1.85a7.611 7.611 0 0 0 .774-.5s.514-1.815 0-2.419-.7-.819-.036-1.211a1.353 1.353 0 0 0 .265-1.992 3.342 3.342 0 0 1-.6-3.417c.662-1.567.912-6.371.912-6.371s-.308-3.273 0-4.014-.354-2.242-.354-2.242a11.584 11.584 0 0 1 .626-2.711c.414-.863.73-5.375.73-5.375a11.658 11.658 0 0 0 .73-3.167c0-1.246-1.138-4.234.547-5.019 0 0 .73.642.441 3.2a26.664 26.664 0 0 1 .845 3.915c0 .925.626 4.271.626 4.271a4.356 4.356 0 0 0 .33 1.459c.257.392 0 1.46 0 1.46s.956.89.7 1.46a4.071 4.071 0 0 0 .044 1.854l-.228 7.969s-.66 3.417.883 5.473c0 0-.547 3.025-.883 3.238s1.215 2.065 1.215 2.065-.429 1.2.441 1.257v1.981a4.212 4.212 0 0 0 1.213 1.352c.808.569.478 2.527.478 2.527a3.36 3.36 0 0 0 3.751 1.958c2.722-.535 3.089-.783 2.941-1.673-.053-.325-.17-.912-.339-1.562a9.971 9.971 0 0 0-1.277-3.2 13.251 13.251 0 0 1-1.543-3.315s-.332-.748 0-1a.676.676 0 0 0 .182-.711 2.336 2.336 0 0 0 .031-1.494c-.29-.569.556-1.744.556-1.744l-.257-5.473.257-7.972s-1.14-1.317-.662-2.1-.547-1.886-.547-1.886-.111-.035.182-.925a2.217 2.217 0 0 0-.075-1.6 5.256 5.256 0 0 1 .478-3.879s.478-2.207.626-3.346c.1-.792.73-3.747 1.115-5.473l.062-.281c.547.029.956.064.956.064s-.845-5.873 0-7.082-.662-10.463-.662-10.463-.365-1.616-.582-3.267a15.246 15.246 0 0 1-.036-.281 17.4 17.4 0 0 1 2.052-.046c1.766.106 3.494-.569 3.53-1.246s.994-3.346 1.14-3.95a8.433 8.433 0 0 0-.004-3.173z" class="cls-11" data-name="Path 49" transform="translate(-156.62 -186.357)"/>
        <path id="Path_50" d="M200.484 802.011v3.295a5.525 5.525 0 0 1-2.056 1.459c-1.064.325-.85 1.169-.85 1.169l-.317 1.381a10.932 10.932 0 0 1-2.3 1.594 4.32 4.32 0 0 1-3.862-.921c-.547-.418-.327-1.31.161-2.262a15.412 15.412 0 0 1 2.321-3.194 4.446 4.446 0 0 0 .857-2.169 9.736 9.736 0 0 0 .133-.983z" class="cls-12" data-name="Path 50" transform="translate(-179.345 -662.529)"/>
        <path id="Path_51" d="M200.484 818.32v.836a5.525 5.525 0 0 1-2.056 1.459c-1.064.325-.85 1.169-.85 1.169l-.317 1.381a10.932 10.932 0 0 1-2.3 1.594 4.321 4.321 0 0 1-3.862-.921c-.547-.418-.327-1.31.161-2.262-.024 1 .274 2.125 1.717 2.085a7.323 7.323 0 0 0 4.287-1.569s-.036-2.337 1.595-2.87a4.94 4.94 0 0 0 1.625-.902z" class="cls-4" data-name="Path 51" transform="translate(-179.345 -676.378)"/>
        <path id="Path_52" d="M291.573 800.258a3.235 3.235 0 0 1-3.614-1.95s.319-1.948-.46-2.516a4.177 4.177 0 0 1-1.169-1.346v-3.258l3.189-2.268 1.726 1.527.117.1a13.36 13.36 0 0 0 1.489 3.3 10.155 10.155 0 0 1 1.231 3.189c.162.653.275 1.231.327 1.554.142.888-.209 1.136-2.836 1.668z" class="cls-12" data-name="Path 52" transform="translate(-257.468 -652.342)"/>
        <path id="Path_53" d="M291.573 819.365a3.235 3.235 0 0 1-3.614-1.95s.319-1.948-.46-2.516a4.177 4.177 0 0 1-1.169-1.346v-1.263a13.413 13.413 0 0 1 1.67 2.01c.283.6.319 2.8 1.629 3.189s3.862.744 4.076-.248a5.423 5.423 0 0 1 .381-1.095c.162.653.275 1.231.327 1.554.138.884-.213 1.132-2.84 1.665z" class="cls-4" data-name="Path 53" transform="translate(-257.468 -671.448)"/>
        <path id="Path_54" d="M210.961 801.35l5.92.637v1.742c-.668.4-1.624.815-2.162.383a24.714 24.714 0 0 0-3.89-1.779c.101-.554.132-.983.132-.983z" class="cls-4" data-name="Path 54" transform="translate(-195.742 -662.504)"/>
        <path id="Path_55" d="M291.362 790.8c-.816-.283-2.268.958-4.181 1.737a1.987 1.987 0 0 1-.85.182v-1.571l3.189-2.268 1.726 1.527a2.19 2.19 0 0 0 .116.393z" class="cls-4" data-name="Path 55" transform="translate(-257.468 -652.309)"/>
        <path id="Path_56" d="M223.351 583.036s-.113.52-.272 1.277c-.365 1.722-.978 4.667-1.075 5.455-.142 1.133-.6 3.329-.6 3.329a5.385 5.385 0 0 0-.462 3.862 2.278 2.278 0 0 1 .071 1.594c-.283.887-.182.912-.182.912s.992 1.095.531 1.879.639 2.091.639 2.091l-.248 7.936.255 5.466s-.816 1.169-.536 1.737a2.4 2.4 0 0 1-.031 1.489.687.687 0 0 1-.182.708c-.325.248 0 .992 0 .992-.816-.283-2.268.956-4.181 1.737s-1.277-1.064-1.277-1.064-1.489-1.843-1.169-2.056.85-3.224.85-3.224c-1.489-2.054-.85-5.457-.85-5.457l.219-7.934a4.175 4.175 0 0 1-.042-1.844c.248-.567-.673-1.459-.673-1.459s.248-1.062 0-1.46a4.527 4.527 0 0 1-.319-1.459s-.6-3.331-.6-4.253a27.226 27.226 0 0 0-.815-3.9c.285-2.554-.425-3.189-.425-3.189-1.629.779-.531 3.755-.531 5a11.873 11.873 0 0 1-.708 3.154 34.773 34.773 0 0 1-.71 5.349 12.355 12.355 0 0 0-.6 2.713 4.037 4.037 0 0 1 .339 2.233 17.657 17.657 0 0 0 0 4.014s-.234 4.783-.87 6.341a3.417 3.417 0 0 0 .575 3.4 1.375 1.375 0 0 1-.257 1.983c-.639.389-.46.6.036 1.206s0 2.41 0 2.41-2.02 1.594-2.906.885-3.72-1.629-4.074-1.877-.248-.958.283-1.523.248-.639.248-.639c-1.418-.425-.531-1.737-.531-1.737s1.459-1.558.85-2.408a5.178 5.178 0 0 1-.213-3.831c.389-.5-.071-1.914-.071-1.914l-.845-6.909s-.04-1.459.42-1.631a.877.877 0 0 0 .462-1.346c-.354-.744.389-2.408.389-2.408.427-.567-.317-3.012-1.2-4.358s-.354-5.28-.354-5.28a4.038 4.038 0 0 1-.673-1.418 1.984 1.984 0 0 0-.213-.85 4.752 4.752 0 0 1-.113-2.554c.13-.932.327-1.737.327-1.737z" class="cls-13" data-name="Path 56" transform="translate(-187.368 -483.556)"/>
        <path id="Path_57" d="M243.82 316.522l-6.987 1.631s-3.43-2.906-2.58-4.461a6.179 6.179 0 0 0 .465-2.415c.035-.755.015-1.545-.016-2.213-.051-.965-.13-1.678-.13-1.678s7.157-4.039 6.909 0a10.266 10.266 0 0 0 .047 2.02 3.855 3.855 0 0 0 .412 1.368c.383.68.856.691.856.691z" class="cls-14" data-name="Path 57" transform="translate(-214.781 -257.189)"/>
        <path id="Path_58" d="M243.566 309.375a5.488 5.488 0 0 1-6.827-.341c-.051-.965-.13-1.678-.13-1.678s7.157-4.039 6.909 0a10.266 10.266 0 0 0 .048 2.019z" class="cls-4" data-name="Path 58" transform="translate(-216.819 -257.164)"/>
        <circle id="Ellipse_32" cx="5.491" cy="5.491" r="5.491" class="cls-14" data-name="Ellipse 32" transform="translate(18.056 42.114)"/>
        <path id="Path_59" d="M243.82 339.749l-6.987 1.631s-3.43-2.906-2.58-4.461a6.179 6.179 0 0 0 .465-2.415 3.558 3.558 0 0 0 1.282 2.132 2.485 2.485 0 0 1 1.346 2.372l2.87-.106a1.909 1.909 0 0 1 1.241-1.948c.354-.142.182-.779.182-.779l.307-2.175c.383.68.856.691.856.691z" class="cls-4" data-name="Path 59" transform="translate(-214.781 -280.416)"/>
        <path id="Path_60" d="M223.869 583.052s-.113.52-.272 1.277a11.183 11.183 0 0 0-2.244.033 37.526 37.526 0 0 1-3.9.248l-7.724.274v-.237a22.767 22.767 0 0 0-2.656.182 18.6 18.6 0 0 1-4.678-.285 5.033 5.033 0 0 1-1.177-.317c.13-.932.327-1.737.327-1.737z" class="cls-4" data-name="Path 60" transform="translate(-187.886 -483.572)"/>
        <path id="Path_61" d="M204.725 357.289a11.2 11.2 0 0 0 .111 2.842c.213 1.642.562 3.253.562 3.253s1.459 9.213.637 10.417 0 7.051 0 7.051a18.121 18.121 0 0 0-3.224-.035c-.779.177-3.9.248-3.9.248l-7.724.274v-.239a22.78 22.78 0 0 0-2.656.182 18.685 18.685 0 0 1-4.678-.283c-1.312-.212-1.843-.639-1.7-.85s-.142-6.02-.142-6.02l-.035-4.712s-.036-3.331.779-4.076a6.325 6.325 0 0 0 .815-2.643c.3-1.764.46-3.734.46-3.734l-5.386-14.412-.106-.285s1.558-2.41 1.31-3.579 1.46-2.189 1.46-2.189 3.224-1.418 3.437-1.843 2.445-.531 2.445-.531 1.277-.673 1.494-1.109a.841.841 0 0 1 .595-.483 3.568 3.568 0 0 0 1.277 2.16 2.484 2.484 0 0 1 1.346 2.372l2.87-.106a1.908 1.908 0 0 1 1.241-1.948c.354-.14.182-.781.182-.781l.332-2.293c.153-.381 1.226 1.078 1.226 1.078s2.737.932 2.906 1 2.481.779 2.481.779 2.833 1.843 2.833 2.3a17.069 17.069 0 0 0 1.56 2.943l-.053.279c-.369 1.936-2.496 13.45-2.755 14.973z" class="cls-15" data-name="Path 61" transform="translate(-169.343 -280.311)"/>
        <path id="Path_62" d="M221.064 421.523s-6.13-1.629-6.734-2.02-4.145 1.877.182 4.96c0 0 5.291 1.095 6.7 0s-.148-2.94-.148-2.94z" class="cls-14" data-name="Path 62" transform="translate(-197.021 -350.285)"/>
        <path id="Path_63" d="M269.759 377.55l.744.036 2.189 5.882s1.312 3.083 1.56 3.579a8.554 8.554 0 0 1 0 3.153c-.142.6-1.064 3.26-1.095 3.933s-1.7 1.346-3.4 1.241a44.009 44.009 0 0 0-5.668.425s-4.238-.443-6.84.885c0 0-1.664-3.437-1.487-9.852a16.637 16.637 0 0 1 3.685.106c.744.288 4.358 1.095 4.818.673s2.554.781 2.554.781a1.792 1.792 0 0 0 0-1.489c-.354-.85-.956-3.508-.182-4.358a55.27 55.27 0 0 0 3.122-4.995z" class="cls-4" data-name="Path 63" transform="translate(-232.465 -316.021)"/>
        <path id="Path_64" d="M268.6 397.738c-1.759.119-3.725.383-3.725.383s-4.238-.443-6.84.885c0 0-1.666-3.437-1.489-9.852a16.637 16.637 0 0 1 3.685.106c.744.288 4.358 1.095 4.82.673s2.554.781 2.554.781a1.8 1.8 0 0 0 0-1.489c-.354-.85-.956-3.508-.182-4.358a54.95 54.95 0 0 0 3.118-5l.691.033c-.365 1.954-2.487 13.467-2.746 14.991a11.309 11.309 0 0 0 .114 2.847z" class="cls-4" data-name="Path 64" transform="translate(-233.111 -317.917)"/>
        <path id="Path_65" d="M270.531 378.33l.744.036 2.189 5.882s1.312 3.081 1.56 3.578a8.6 8.6 0 0 1 0 3.154c-.14.6-1.064 3.26-1.095 3.933s-1.7 1.346-3.4 1.239a43.608 43.608 0 0 0-5.668.427s-4.24-.443-6.84.885c0 0-1.666-3.437-1.489-9.852a16.641 16.641 0 0 1 3.685.106c.744.288 4.358 1.095 4.82.673s2.554.779 2.554.779a1.793 1.793 0 0 0 0-1.487c-.354-.852-.956-3.508-.182-4.358a55.259 55.259 0 0 0 3.122-4.995z" class="cls-15" data-name="Path 65" transform="translate(-233.095 -316.658)"/>
        <path id="Rectangle_83" d="M0 0h1.04v9.359H0z" class="cls-16" data-name="Rectangle 83" transform="rotate(-148.23 26.126 33.228)"/>
        <ellipse id="Ellipse_33" cx="2.996" cy="2.1" class="cls-16" data-name="Ellipse 33" rx="2.996" ry="2.1" transform="rotate(-58.23 76.31 3.518)"/>
        <ellipse id="Ellipse_34" cx="2.149" cy="1.507" class="cls-4" data-name="Ellipse 34" rx="2.149" ry="1.507" transform="rotate(-58.23 76.42 2.462)"/>
        <path id="Rectangle_84" d="M0 0h1.04v5.823H0z" class="cls-7" data-name="Rectangle 84" transform="rotate(-148.23 25.446 35.62)"/>
        <path id="Path_66" d="M242.854 448.648l2.162-.6s10.665.283 7.086-4.11c0 0-1.877-1.808-5.811-.356a35.868 35.868 0 0 1-5.032 1.631z" class="cls-14" data-name="Path 66" transform="translate(-220.621 -369.543)"/>
        <circle id="Ellipse_35" cx=".425" cy=".425" r=".425" class="cls-4" data-name="Ellipse 35" transform="translate(20.216 59.723)"/>
        <circle id="Ellipse_36" cx=".425" cy=".425" r=".425" class="cls-4" data-name="Ellipse 36" transform="translate(27.515 59.475)"/>
        <circle id="Ellipse_37" cx=".425" cy=".425" r=".425" class="cls-17" data-name="Ellipse 37" transform="translate(20.216 59.581)"/>
        <circle id="Ellipse_38" cx=".425" cy=".425" r=".425" class="cls-4" data-name="Ellipse 38" transform="translate(20.82 65.605)"/>
        <circle id="Ellipse_39" cx=".425" cy=".425" r=".425" class="cls-4" data-name="Ellipse 39" transform="translate(27.729 65.18)"/>
        <circle id="Ellipse_40" cx=".425" cy=".425" r=".425" class="cls-17" data-name="Ellipse 40" transform="translate(20.82 65.463)"/>
        <circle id="Ellipse_41" cx=".425" cy=".425" r=".425" class="cls-4" data-name="Ellipse 41" transform="translate(27.552 85.698)"/>
        <circle id="Ellipse_42" cx=".425" cy=".425" r=".425" class="cls-4" data-name="Ellipse 42" transform="translate(21.955 85.698)"/>
        <circle id="Ellipse_43" cx=".425" cy=".425" r=".425" class="cls-17" data-name="Ellipse 43" transform="translate(27.552 85.556)"/>
        <circle id="Ellipse_44" cx=".425" cy=".425" r=".425" class="cls-4" data-name="Ellipse 44" transform="translate(22.38 92.817)"/>
        <circle id="Ellipse_45" cx=".425" cy=".425" r=".425" class="cls-4" data-name="Ellipse 45" transform="translate(27.729 92.392)"/>
        <circle id="Ellipse_46" cx=".425" cy=".425" r=".425" class="cls-17" data-name="Ellipse 46" transform="translate(22.38 92.677)"/>
        <circle id="Ellipse_47" cx=".425" cy=".425" r=".425" class="cls-17" data-name="Ellipse 47" transform="translate(21.955 85.556)"/>
        <circle id="Ellipse_48" cx=".425" cy=".425" r=".425" class="cls-17" data-name="Ellipse 48" transform="translate(27.729 92.25)"/>
        <circle id="Ellipse_49" cx=".425" cy=".425" r=".425" class="cls-17" data-name="Ellipse 49" transform="translate(27.515 59.333)"/>
        <circle id="Ellipse_50" cx=".425" cy=".425" r=".425" class="cls-17" data-name="Ellipse 50" transform="translate(27.729 65.038)"/>
        <path id="Path_67" d="M285.94 480.88s.071 9.709.285 11.444c0 0 .075-10.986-.285-11.444z" class="cls-4" data-name="Path 67" transform="translate(-257.15 -400.5)"/>
        <path id="Path_68" d="M295.827 505.55c-.146 0 2.9 11.373 3.047 12.189s-2.197-12.189-3.047-12.189z" class="cls-4" data-name="Path 68" transform="translate(-265.229 -420.669)"/>
        <path id="Path_69" d="M309.05 495.45c0 .106 1.7 6.164 2.554 6.484s-2.554-6.484-2.554-6.484z" class="cls-4" data-name="Path 69" transform="translate(-276.043 -412.411)"/>
        <path id="Path_70" d="M329.08 430.77s-3.614.161-3.72.682 3.72-.682 3.72-.682z" class="cls-4" data-name="Path 70" transform="translate(-289.376 -359.531)"/>
        <path id="Path_71" d="M300.8 684s-2.587 1.095-2.189 1.168S300.8 684 300.8 684z" class="cls-4" data-name="Path 71" transform="translate(-267.477 -566.563)"/>
        <path id="Path_72" d="M281.452 674.967c-.1-.226 1.737.912 1.737 1.064a4.214 4.214 0 0 1-1.737-1.064z" class="cls-4" data-name="Path 72" transform="translate(-253.477 -559.154)"/>
        <path id="Path_73" d="M294.68 695.471s2.02-.1 2.162.677-2.162-.677-2.162-.677z" class="cls-4" data-name="Path 73" transform="translate(-264.295 -575.938)"/>
        <path id="Path_74" d="M215.05 694.616s2.189-.429 2.372 0-2.372 0-2.372 0z" class="cls-4" data-name="Path 74" transform="translate(-199.192 -575.087)"/>
        <path id="Path_75" d="M217.036 768.72s.144 1.806-.389 2.231.389-2.231.389-2.231z" class="cls-4" data-name="Path 75" transform="translate(-200.362 -635.827)"/>
        <path id="Path_76" d="M218.05 788.628c.693.071 4.342-.567 4.307 0s-4.307 0-4.307 0z" class="cls-4" data-name="Path 76" transform="translate(-201.645 -651.909)"/>
        <path id="Path_77" d="M305.4 777.574s-1.244-.182-.941.648z" class="cls-4" data-name="Path 77" transform="translate(-272.25 -643.052)"/>
        <path id="Path_78" d="M170.126 386.818h-.673l-1.027 3.756a5.194 5.194 0 0 1-.708 1.631c-.354.319.317 3.224.317 3.224a13.922 13.922 0 0 1-.708 2.587c-.319.531.5 1.843.5 1.843l1.629 3.831 4.324 1.135s7.619 1.666 7.972 1.914.673-.108.912-2.41.921-6.768 1.46-6.98c0 0-4.253.46-4.607.389a17.89 17.89 0 0 0-2.054.036 10.882 10.882 0 0 0-2.587.071c-.354.213.46-1.029.46-1.029a3.419 3.419 0 0 0 0-1.735c-.249-.965-.39-11.809-5.21-8.263z" class="cls-4" data-name="Path 78" transform="translate(-160.116 -323.018)"/>
        <path id="Path_79" d="M193.69 399.7c-.531.212-1.2 4.678-1.46 6.98s-.567 2.658-.912 2.41c-.288-.2-5.365-1.339-7.263-1.759.3-1.764.46-3.734.46-3.734l-5.386-14.412h.567c4.818-3.545 4.96 7.3 5.209 8.255a3.419 3.419 0 0 1 0 1.735s-.815 1.241-.462 1.029a10.981 10.981 0 0 1 2.587-.071 17.986 17.986 0 0 1 2.056-.035c.357.067 4.604-.398 4.604-.398z" class="cls-4" data-name="Path 79" transform="translate(-169.826 -324.95)"/>
        <path id="Path_80" d="M169.348 387.584h-.673l-1.029 3.756a5.189 5.189 0 0 1-.708 1.629c-.354.319.319 3.233.319 3.233a14 14 0 0 1-.71 2.587c-.319.533.5 1.841.5 1.841l1.631 3.831L173 405.6s7.619 1.664 7.972 1.912.673-.106.912-2.408.912-6.768 1.459-6.98c0 0-4.251.46-4.6.389a17.918 17.918 0 0 0-2.056.036 10.966 10.966 0 0 0-2.587.069c-.354.212.462-1.029.462-1.029a3.417 3.417 0 0 0 0-1.735c-.253-.971-.396-11.813-5.214-8.27z" class="cls-15" data-name="Path 80" transform="translate(-159.478 -323.645)"/>
        <path id="Path_81" d="M184.387 461.07s-1.948 3.685-2.3 3.26 2.3-3.26 2.3-3.26z" class="cls-4" data-name="Path 81" transform="translate(-172.214 -384.304)"/>
        <path id="Path_82" d="M178.476 449.57s-1.806 1.5-.956 1.885.956-1.885.956-1.885z" class="cls-4" data-name="Path 82" transform="translate(-168.324 -374.902)"/>
        <path id="Path_83" d="M193.1 439.51a12.765 12.765 0 0 1 2.658.743c.035.213-2.658-.743-2.658-.743z" class="cls-4" data-name="Path 83" transform="translate(-181.247 -366.677)"/>
        <path id="Path_84" d="M237.961 273a.365.365 0 0 0-.243.379c-.144.128-.348-.022-.465-.182s-.254-.365-.434-.339a1.527 1.527 0 0 0-.248.1c-.283.089-.522-.243-.68-.535l-.83-1.534c-.547.323-1.21-.015-1.759-.348s-1.2-.671-1.761-.35c-.815.471-.845 2.04-1.689 2.426-.272.126-.587.1-.841.27a1.591 1.591 0 0 0-.5.81.846.846 0 0 1-.277.458.6.6 0 0 1-.286.069 1.219 1.219 0 0 1-.73-.1.622.622 0 0 1-.255-.73.312.312 0 0 1 .024-.042 2.554 2.554 0 0 0 .243-.35c.086-.224-.036-.487 0-.73.044-.416.485-.637.56-1.045.031-.161 0-.332.027-.493a.645.645 0 0 1 .018-.064l-.259.182a6.116 6.116 0 0 0 .648-1.22 3.76 3.76 0 0 1 2.293-1.866 5.487 5.487 0 0 1 2.833.033 9.366 9.366 0 0 1 2.523 1.038 2.528 2.528 0 0 1 .73.6 4.576 4.576 0 0 1 .434.8c.275.569 1.027 1.095.429 1.177-.5.066-.044.414.217.649a.679.679 0 0 1 .15.166.584.584 0 0 1-.031.567c-.111.121.298.146.159.204z" class="cls-4" data-name="Path 84" transform="translate(-208.906 -226.128)"/>
        <path id="Path_85" d="M237.965 272.234a.365.365 0 0 0-.243.379c-.144.128-.348-.024-.465-.182s-.254-.365-.434-.339a1.523 1.523 0 0 0-.248.1c-.283.091-.522-.243-.68-.535-.277-.511-.547-1.023-.83-1.532-.547.321-1.21-.016-1.759-.35s-1.2-.671-1.76-.35c-.815.471-.845 2.04-1.689 2.428-.272.124-.587.1-.841.268a1.589 1.589 0 0 0-.5.812.841.841 0 0 1-.277.456.6.6 0 0 1-.286.071 1.231 1.231 0 0 1-.73-.1.626.626 0 0 1-.255-.73.314.314 0 0 1 .024-.042 3.5 3.5 0 0 0 .243-.35c.086-.224-.036-.487 0-.73.044-.418.485-.637.56-1.047.031-.161 0-.332.027-.493a.616.616 0 0 1 .018-.062l-.259.182a6.216 6.216 0 0 0 .648-1.221 3.764 3.764 0 0 1 2.294-1.867 5.487 5.487 0 0 1 2.833.033 9.3 9.3 0 0 1 2.523 1.04 2.491 2.491 0 0 1 .73.6 4.575 4.575 0 0 1 .434.8c.275.571 1.027 1.095.429 1.177-.5.068-.044.416.217.651a.65.65 0 0 1 .15.164.584.584 0 0 1-.031.567c-.113.118.292.139.157.202z" class="cls-18" data-name="Path 85" transform="translate(-208.91 -225.499)"/>
        <path id="Path_86" d="M237.868 271.237l-.057.6s-5.947-7.538-10.581.974l-.06-.279a3.5 3.5 0 0 0 .243-.35c.086-.224-.036-.487 0-.73.044-.418.485-.637.56-1.047.031-.161 0-.332.027-.493a.62.62 0 0 1 .018-.062l-.259.182a6.216 6.216 0 0 0 .648-1.221 3.764 3.764 0 0 1 2.293-1.868 5.487 5.487 0 0 1 2.833.033 9.305 9.305 0 0 1 2.523 1.04 2.491 2.491 0 0 1 .73.6 4.574 4.574 0 0 1 .434.8c.275.571 1.027 1.095.429 1.177-.496.06-.042.414.219.644z" class="cls-4" data-name="Path 86" transform="translate(-209.101 -225.45)"/>
        <g id="Group_47" class="cls-19" data-name="Group 47" transform="translate(18.057 43.583)">
            <path id="Path_87" d="M237.964 282.249a.294.294 0 0 0-.068.246c-.144.128-.347-.024-.463-.182s-.255-.365-.434-.339a1.461 1.461 0 0 0-.248.1c-.285.091-.524-.243-.682-.535l-.828-1.534c-.547.323-1.21-.015-1.759-.348s-1.206-.671-1.761-.35c-.815.471-.845 2.04-1.689 2.426-.274.126-.589.1-.841.27a1.591 1.591 0 0 0-.5.81.857.857 0 0 1-.277.458.587.587 0 0 1-.286.069 1.215 1.215 0 0 1-.73-.1.673.673 0 0 1-.277-.39.639.639 0 0 0 .277.673 1.229 1.229 0 0 0 .73.1.631.631 0 0 0 .286-.069.865.865 0 0 0 .277-.458 1.6 1.6 0 0 1 .5-.812c.25-.171.567-.144.841-.268.845-.387.874-1.956 1.689-2.426.547-.323 1.21.016 1.761.35s1.2.67 1.759.348l.828 1.532c.159.292.4.626.682.535a1.617 1.617 0 0 1 .248-.1c.182-.024.314.182.434.338s.319.314.463.182a.365.365 0 0 1 .243-.379c.111-.041-.124-.068-.175-.147z" data-name="Path 87" transform="translate(-227.109 -279.181)"/>
            <path id="Path_88" d="M283.673 286.635a.5.5 0 0 1 .135-.033c.263-.036.265-.159.161-.332a.419.419 0 0 1-.161.047c-.284.039-.259.17-.135.318z" data-name="Path 88" transform="translate(-273.281 -284.977)"/>
            <path id="Path_89" d="M286.651 293.537a.646.646 0 0 0 0-.277.416.416 0 0 1-.071.155c-.048.057.007.093.071.122z" data-name="Path 89" transform="translate(-275.715 -290.691)"/>
            <path id="Path_90" d="M228.712 292.54a.457.457 0 0 0 0 .049 1.594 1.594 0 0 0 .027.381 1.38 1.38 0 0 0-.027-.43z" data-name="Path 90" transform="translate(-228.418 -290.103)"/>
            <path id="Path_91" d="M230.809 283.06a2.205 2.205 0 0 1-.239.356l.23-.157a1.2 1.2 0 0 1 .009-.199z" data-name="Path 91" transform="translate(-229.939 -282.352)"/>
        </g>
        <path id="Path_92" d="M217.828 235.807s-.856-3.831-.584-4.437a10.169 10.169 0 0 1-.73-1.875 3.59 3.59 0 0 0-.547-1.695c-.389-.613-.815-3.466 1.516-4.147s4.121-1.3 4.393-1.768 4.276-.182 5.365 1.624 1.788 1.441 1.788 1.441 1.671 1.05 1.671 1.985-.505 1.407 0 1.622.117 4.112-2.1 4.22l-.193 2.056s-5.952-7.538-10.579.974z" class="cls-15" data-name="Path 92" transform="translate(-199.692 -188.592)"/>
        <path id="Path_93" d="M228.31 236.55s-.514 3.012.425 4.014z" class="cls-4" data-name="Path 93" transform="translate(-209.918 -200.744)"/>
        <path id="Path_94" d="M237.476 232.76s-1.31 3.225-.991 3.846z" class="cls-4" data-name="Path 94" transform="translate(-216.676 -197.646)"/>
        <path id="Path_95" d="M245.775 227.13s-.887 4.2-.462 4.535z" class="cls-4" data-name="Path 95" transform="translate(-223.84 -193.043)"/>
        <path id="Path_96" d="M253.308 233.34s-1.095 2.695-.655 3.065z" class="cls-4" data-name="Path 96" transform="translate(-229.85 -198.12)"/>
        <path id="Path_97" d="M263.305 235.09s-1.293 2.189-1.027 2.587z" class="cls-4" data-name="Path 97" transform="translate(-237.775 -199.551)"/>
        <path id="Path_98" d="M277.557 246.84s-1.383.365-1.095.815z" class="cls-4" data-name="Path 98" transform="translate(-249.369 -209.157)"/>
        <path id="Path_99" d="M285.173 259.37s-1.241.6-1.011.921z" class="cls-4" data-name="Path 99" transform="translate(-255.673 -219.401)"/>
        <path id="Path_100" d="M224.34 269.89s7.921-3.216 11.351 1.407c0 .003-4.163-3.539-11.351-1.407z" class="cls-4" data-name="Path 100" transform="translate(-206.788 -227.112)"/>
        <path id="Path_101" d="M80.39 374.427l1.1-1.117 3.12 3.085-1.1 1.116-2.87-2.837z" class="cls-7" data-name="Path 101" transform="translate(-65.698 -305.211)"/>
        <path id="Path_102" d="M169 380.45s4.829.41 9.326 5.473l-1.874 1.9z" class="cls-16" data-name="Path 102" transform="translate(-161.544 -318.392)"/>
        <path id="Path_103" d="M218.957 420.445a50.15 50.15 0 0 1-5.1-2.1c-.456-.405-3.142 1.95.133 5.152 0 0 4.014 1.14 5.075 0s-.108-3.052-.108-3.052z" class="cls-14" data-name="Path 103" transform="translate(-197.017 -349.338)"/>
        <path id="Rectangle_85" d="M0 0h.943v21.243H0z" class="cls-20" data-name="Rectangle 85" transform="translate(156.565 93.24)"/>
        <path id="Path_104" d="M966.612 661.04l-.06.958-.082 1.35-.035.562-.084 1.352-.036.564-.084 1.35-.951 15.359a2.6 2.6 0 0 1-2.6 2.441h-4.944a2.6 2.6 0 0 1-2.6-2.441l-.952-15.36-.084-1.35-.035-.564-.086-1.352-.033-.562-.084-1.35-.06-.958a1.346 1.346 0 0 1 1.345-1.43h10.116a1.346 1.346 0 0 1 1.343 1.43z" class="cls-5" data-name="Path 104" transform="translate(-803.172 -546.623)"/>
        <path id="Path_105" d="M838.555 632.45l-.084 1.35h-12.517l-.084-1.35z" class="cls-21" data-name="Path 105" transform="translate(-675.176 -517.075)"/>
        <path id="Path_106" d="M838.968 642.93l-.084 1.352H826.6l-.084-1.352z" class="cls-21" data-name="Path 106" transform="translate(-675.707 -525.643)"/>
        <path id="Path_107" d="M839.379 653.43l-.082 1.35h-12.043l-.084-1.35z" class="cls-21" data-name="Path 107" transform="translate(-676.238 -534.227)"/>
        <path id="Path_108" d="M891.946 576.2a24.485 24.485 0 0 1 7.783 10.193A22.226 22.226 0 0 1 879.83 572a24.458 24.458 0 0 1 12.116 4.2z" class="cls-15" data-name="Path 108" transform="translate(-742.692 -474.996)"/>
        <path id="Path_109" d="M879.83 572s6.872 3.815 9.076 6.973 10.822 7.422 10.822 7.422" class="cls-22" data-name="Path 109" transform="translate(-742.692 -474.996)"/>
        <path id="Path_110" d="M936.125 540.866a13.335 13.335 0 0 1 4.236 5.548 12.1 12.1 0 0 1-10.831-7.834 13.315 13.315 0 0 1 6.595 2.286z" class="cls-15" data-name="Path 110" transform="translate(-783.325 -447.673)"/>
        <path id="Path_111" d="M929.53 538.58s3.734 2.083 4.94 3.795 5.891 4.039 5.891 4.039" class="cls-22" data-name="Path 111" transform="translate(-783.325 -447.673)"/>
        <path id="Path_112" d="M994.071 558.334a18.421 18.421 0 0 0-4.161 8.71 16.74 16.74 0 0 0 12.44-13.674 18.422 18.422 0 0 0-8.279 4.964z" class="cls-15" data-name="Path 112" transform="translate(-832.69 -459.765)"/>
        <path id="Path_113" d="M1002.35 553.37s-4.475 3.728-5.612 6.3-6.829 6.876-6.829 6.876" class="cls-22" data-name="Path 113" transform="rotate(-3 -8189.542 16229.903)"/>
    </g>
</svg>
