<svg xmlns="http://www.w3.org/2000/svg" width="71.332" height="71.334" viewBox="0 0 71.332 71.334">
    <defs>
        <style>
            .cls-1{fill:#fff}.cls-2{fill:#ff9f56}.cls-3{fill:#ffcdac}.cls-4{fill:#a5ddff}.cls-5{fill:#ffbc53}.cls-6{fill:#9ad8ff}
        </style>
    </defs>
    <g id="resume" transform="translate(-.007)">
        <path id="Path_208" d="M63.507 78.547H12.793a2.786 2.786 0 0 1-2.786-2.786V12.786A2.786 2.786 0 0 1 12.793 10h50.714a2.786 2.786 0 0 1 2.786 2.786v62.975a2.786 2.786 0 0 1-2.786 2.786z" class="cls-1" data-name="Path 208" transform="translate(-8.607 -8.607)"/>
        <circle id="Ellipse_93" cx="11.425" cy="11.425" r="11.425" class="cls-2" data-name="Ellipse 93" transform="translate(18.119 8.917)"/>
        <path id="Path_209" d="M193.252 113.122v.906a3.622 3.622 0 0 1-3.622 3.622 3.623 3.623 0 0 1-3.622-3.622v-.906a3.622 3.622 0 0 1 3.622-3.622 3.622 3.622 0 0 1 3.622 3.622z" class="cls-3" data-name="Path 209" transform="translate(-160.086 -94.244)"/>
        <path id="Path_210" d="M163.954 168a8.36 8.36 0 0 0-7.779 5.3 11.416 11.416 0 0 0 15.557 0 8.36 8.36 0 0 0-7.778-5.3z" class="cls-4" data-name="Path 210" transform="translate(-134.41 -144.594)"/>
        <path id="Path_211" d="M333.184 138.3l.8-1.379a4.458 4.458 0 0 1 6.09-1.632 4.459 4.459 0 0 1 1.632 6.09l-17.533 30.367-7.722-4.458 7.563-13.1z" class="cls-5" data-name="Path 211" transform="translate(-272.352 -115.923)"/>
        <path id="Path_212" d="M435.592 135.285a4.458 4.458 0 0 0-6.09 1.632l-2.07 3.585 7.722 4.458 2.07-3.585a4.459 4.459 0 0 0-1.632-6.09z" class="cls-2" data-name="Path 212" transform="translate(-367.875 -115.922)"/>
        <path id="Path_213" d="M316.545 373.114l-8.956 6.6 1.234-11.055z" class="cls-6" data-name="Path 213" transform="translate(-264.729 -317.293)"/>
        <path id="Path_214" d="M57.687 55.5a1.393 1.393 0 0 0-1.393 1.393v10.261a1.4 1.4 0 0 1-1.394 1.393H4.187a1.4 1.4 0 0 1-1.393-1.393V4.18a1.4 1.4 0 0 1 1.393-1.394H54.9a1.4 1.4 0 0 1 1.394 1.394v15.151a1.393 1.393 0 0 0 2.786 0V4.18A4.184 4.184 0 0 0 54.9 0H4.187a4.184 4.184 0 0 0-4.18 4.18v62.974a4.184 4.184 0 0 0 4.18 4.18H54.9a4.184 4.184 0 0 0 4.18-4.18V56.89a1.393 1.393 0 0 0-1.393-1.39z" data-name="Path 214"/>
        <path id="Path_215" d="M145.643 66.818a12.818 12.818 0 1 0-21.612 9.316 1.38 1.38 0 0 0 .15.139 12.794 12.794 0 0 0 17.288 0 1.392 1.392 0 0 0 .15-.139 12.782 12.782 0 0 0 4.024-9.316zm-12.818-10.032a10.025 10.025 0 0 1 8.075 15.979 9.665 9.665 0 0 0-4.1-3.441 4.989 4.989 0 0 0 1.048-3.063v-.906a5.016 5.016 0 1 0-10.031 0v.906a4.989 4.989 0 0 0 1.048 3.063 9.665 9.665 0 0 0-4.1 3.441 10.025 10.025 0 0 1 8.072-15.978zM130.6 66.26v-.906a2.229 2.229 0 0 1 4.458 0v.906a2.229 2.229 0 0 1-4.458 0zm-3.83 8.545a6.966 6.966 0 0 1 12.119 0 10 10 0 0 1-12.119 0z" data-name="Path 215" transform="translate(-103.281 -46.477)"/>
        <path id="Path_216" d="M210.924 438H203.4a1.393 1.393 0 1 0 0 2.786h7.523a1.393 1.393 0 1 0 0-2.786z" data-name="Path 216" transform="translate(-173.857 -376.976)"/>
        <path id="Path_217" d="M135.184 382H115.4a1.393 1.393 0 1 0 0 2.786h19.784a1.393 1.393 0 1 0 0-2.786z" data-name="Path 217" transform="translate(-98.117 -328.778)"/>
        <path id="Path_218" d="M135.184 326H115.4a1.393 1.393 0 1 0 0 2.786h19.784a1.393 1.393 0 1 0 0-2.786z" data-name="Path 218" transform="translate(-98.117 -280.58)"/>
        <path id="Path_219" d="M73.667 270.408a1.392 1.392 0 1 0 .408.985 1.4 1.4 0 0 0-.408-.985z" data-name="Path 219" transform="translate(-61.349 -232.383)"/>
        <path id="Path_220" d="M73.667 326.408a1.392 1.392 0 1 0 .408.985 1.406 1.406 0 0 0-.408-.985z" data-name="Path 220" transform="translate(-61.349 -280.58)"/>
        <path id="Path_221" d="M72.68 382a1.394 1.394 0 1 0 .986.408 1.406 1.406 0 0 0-.986-.408z" data-name="Path 221" transform="translate(-61.349 -328.778)"/>
        <path id="Path_222" d="M135.184 270H115.4a1.393 1.393 0 0 0 0 2.786h19.784a1.393 1.393 0 0 0 0-2.786z" data-name="Path 222" transform="translate(-98.117 -232.383)"/>
        <path id="Path_223" d="M324.536 125.462a5.851 5.851 0 0 0-7.993 2.142l-17.533 30.367a1.4 1.4 0 0 0-.178.542l-1.232 11.055a1.393 1.393 0 0 0 2.211 1.276l8.956-6.6a1.391 1.391 0 0 0 .38-.425l17.533-30.367a5.858 5.858 0 0 0-2.144-7.99zm-23.171 35.478l4.032 2.328-4.677 3.444zm6.064.283l-5.309-3.065 14.07-24.369 5.309 3.065zm16.836-29.161l-1.373 2.379-5.309-3.065 1.373-2.376a3.065 3.065 0 0 1 5.309 3.065z" data-name="Path 223" transform="translate(-256.122 -107.305)"/>
    </g>
</svg>
