<svg xmlns="http://www.w3.org/2000/svg" xmlns:xlink="http://www.w3.org/1999/xlink" width="173.578" height="135.441" viewBox="0 0 173.578 135.441">
    <defs>
        <style>
            .cls-1,.cls-3{fill:#ff9f56}.cls-1{opacity:.23}.cls-19,.cls-2{fill:none;stroke-miterlimit:10}.cls-2{stroke:#535461;stroke-width:2px}.cls-4{fill:url(#linear-gradient)}.cls-5{fill:#303030}.cls-6{fill:#dde1ec}.cls-7,.cls-9{fill:#535461}.cls-7{opacity:.3}.cls-18,.cls-8{opacity:.1}.cls-10{fill:url(#linear-gradient-2)}.cls-11{fill:#f8bdc5}.cls-12{fill:#5e52ad}.cls-13{opacity:.87}.cls-14{fill:#a9632d}.cls-15{fill:#5d3e53}.cls-16{fill:#85555c}.cls-17{opacity:.05}.cls-19{stroke:#ffe9d8}.cls-20{fill:#a8a8a8}.cls-21{opacity:.2}
        </style>
        <linearGradient id="linear-gradient" x1=".5" x2=".5" y1="1" gradientUnits="objectBoundingBox">
            <stop offset="0" stop-color="gray" stop-opacity=".251"/>
            <stop offset=".54" stop-color="gray" stop-opacity=".122"/>
            <stop offset="1" stop-color="gray" stop-opacity=".102"/>
        </linearGradient>
        <linearGradient id="linear-gradient-2" xlink:href="#linear-gradient"/>
    </defs>
    <g id="undraw_time_management_30iu" transform="translate(-.007 5.769)">
        <path id="Path_146" d="M99.395 77.425a5.757 5.757 0 0 0-2.918 2.131 6.261 6.261 0 0 0-.458 3.8c1.07 11.21 3.888 23.132-.979 33.286-2.362 4.926-6.313 8.874-9.456 13.348s-5.515 10.059-4.056 15.322c1.782 6.431 8.432 10 12.914 14.945 2.934 3.236 4.991 7.167 7.729 10.571s6.489 6.4 10.859 6.6c6.285.289 11.4-5.138 17.562-6.4 6.313-1.287 12.671 1.989 17.79 5.91s9.775 8.672 15.74 11.12c6.587 2.706 14.012 2.292 20.947 3.918 6.313 1.482 12.125 4.633 18.393 6.313s13.614 1.578 18.47-2.713c6.329-5.612 5.831-15.608 9.873-23.032 3.755-6.9 11.1-11.015 16.052-17.113 8.9-10.975 8.611-27.749 1.052-39.685s-21.25-19.163-35.25-21.045c-6.313-.847-12.814-.731-18.884-2.659-16.246-5.156-25.915-23.63-42.5-27.474-10.543-2.439-20.8 1.785-29.778 6.985-7.797 4.52-14.989 2.507-23.102 5.872z" class="cls-1" data-name="Path 146" transform="translate(-81.08 -69.634)"/>
        <path id="Path_147" d="M168.347 347.69s-5.7 5.384-11.827 5.544a11.883 11.883 0 0 0-7.082 2.519 19.984 19.984 0 0 0-2.648 2.519" class="cls-2" data-name="Path 147" transform="translate(-135.801 -299.666)"/>
        <path id="Path_148" d="M118.643 410.641c.822-.418 3.961-.14 3.961-.14s-1.628 2.7-2.45 3.117a1.671 1.671 0 1 1-1.5-2.977z" class="cls-3" data-name="Path 148" transform="translate(-111.515 -351.903)"/>
        <path id="Path_149" d="M134.634 383.225c.918.1 3.4 2.036 3.4 2.036s-2.841 1.381-3.751 1.285a1.671 1.671 0 0 1 .349-3.321z" class="cls-3" data-name="Path 149" transform="translate(-124.202 -329.259)"/>
        <path id="Path_150" d="M177.393 358.831c.742.547 1.909 3.475 1.909 3.475s-3.144-.239-3.886-.784a1.671 1.671 0 0 1 1.977-2.691z" class="cls-3" data-name="Path 150" transform="translate(-159.124 -308.712)"/>
        <path id="Path_151" d="M217.289 349.734c.824.413 2.469 3.1 2.469 3.1s-3.139.3-3.963-.117a1.671 1.671 0 1 1 1.494-2.985z" class="cls-3" data-name="Path 151" transform="translate(-192.436 -301.187)"/>
        <path id="Path_152" d="M157.868 394.05c.274-.881-.528-3.93-.528-3.93s-2.387 2.059-2.661 2.94a1.671 1.671 0 1 0 3.189.99z" class="cls-3" data-name="Path 152" transform="translate(-142.288 -335.004)"/>
        <path id="Path_153" d="M203.55 384.11c0-.923-1.68-3.59-1.68-3.59s-1.661 2.674-1.66 3.6a1.671 1.671 0 1 0 3.343-.01z" class="cls-3" data-name="Path 153" transform="translate(-180.292 -327.009)"/>
        <path id="Path_154" d="M246.812 365.593c.154-.909-1.05-3.823-1.05-3.823s-2.091 2.36-2.243 3.269a1.671 1.671 0 0 0 3.293.555z" class="cls-3" data-name="Path 154" transform="translate(-216.352 -311.393)"/>
        <path id="Path_155" d="M236.875 176.39s-6.871-3.774-8.914-9.556a11.883 11.883 0 0 0-4.575-5.965 19.987 19.987 0 0 0-3.216-1.738" class="cls-2" data-name="Path 155" transform="translate(-196.916 -142.624)"/>
        <path id="Path_156" d="M198.429 135.2c.65.654 1.351 3.727 1.351 3.727s-3.069-.719-3.719-1.374a1.671 1.671 0 0 1 2.368-2.353z" class="cls-3" data-name="Path 156" transform="translate(-176.478 -122.334)"/>
        <path id="Path_157" d="M229.081 140.419c.191.9-.891 3.863-.891 3.863s-2.185-2.272-2.375-3.176a1.671 1.671 0 1 1 3.268-.689z" class="cls-3" data-name="Path 157" transform="translate(-201.572 -125.872)"/>
        <path id="Path_158" d="M265.8 174.033c-.291.874-2.719 2.885-2.719 2.885s-.739-3.064-.448-3.94a1.673 1.673 0 1 1 3.176 1.055z" class="cls-3" data-name="Path 158" transform="translate(-232.224 -153.203)"/>
        <path id="Path_159" d="M286.5 209.565c-.139.911-2.193 3.3-2.193 3.3s-1.247-2.9-1.108-3.806a1.671 1.671 0 1 1 3.3.5z" class="cls-3" data-name="Path 159" transform="translate(-249.398 -182.96)"/>
        <path id="Path_160" d="M217.735 169.429c.923-.01 3.577-1.712 3.577-1.712s-2.693-1.638-3.615-1.628a1.672 1.672 0 0 0 .038 3.343z" class="cls-3" data-name="Path 160" transform="translate(-193.479 -148.42)"/>
        <path id="Path_161" d="M240.113 210.073c.876-.286 2.9-2.7 2.9-2.7s-3.06-.757-3.936-.471a1.671 1.671 0 1 0 1.036 3.176z" class="cls-3" data-name="Path 161" transform="translate(-211.652 -182.354)"/>
        <path id="Path_162" d="M271.238 245.363c.913-.134 3.316-2.173 3.316-2.173s-2.888-1.264-3.8-1.13a1.671 1.671 0 1 0 .485 3.3z" class="cls-3" data-name="Path 162" transform="translate(-237.796 -211.684)"/>
        <circle id="Ellipse_80" cx="60.507" cy="60.507" r="60.507" class="cls-4" data-name="Ellipse 80" transform="translate(26.739 4.328)"/>
        <circle id="Ellipse_81" cx="59.504" cy="59.504" r="59.504" class="cls-5" data-name="Ellipse 81" transform="translate(27.742 5.331)"/>
        <circle id="Ellipse_82" cx="47.303" cy="47.303" r="47.303" class="cls-6" data-name="Ellipse 82" transform="translate(39.944 17.533)"/>
        <path id="Rectangle_167" d="M0 0h2.674v41.787H0z" class="cls-7" data-name="Rectangle 167" transform="translate(85.91 25.89)"/>
        <g id="Group_55" class="cls-8" data-name="Group 55" transform="translate(61.867 51.325)">
            <path id="Rectangle_168" d="M0 0h37.775v3.343H0z" data-name="Rectangle 168" transform="translate(28.221 12.507)"/>
            <path id="Rectangle_169" d="M0 0h3.343v26.83H0z" data-name="Rectangle 169" transform="rotate(-62.36 2.447 1.48)"/>
            <circle id="Ellipse_83" cx="5.014" cy="5.014" r="5.014" data-name="Ellipse 83" transform="translate(20.365 9.164)"/>
        </g>
        <path id="Rectangle_170" d="M0 0h37.775v3.343H0z" class="cls-9" data-name="Rectangle 170" transform="translate(90.088 63.164)"/>
        <path id="Rectangle_171" d="M0 0h26.83v3.343H0z" class="cls-9" data-name="Rectangle 171" transform="rotate(27.64 -71.255 154.256)"/>
        <circle id="Ellipse_84" cx="5.014" cy="5.014" r="5.014" class="cls-9" data-name="Ellipse 84" transform="translate(82.232 59.821)"/>
        <g id="Group_56" class="cls-8" data-name="Group 56" transform="translate(39.941 17.533)">
            <path id="Path_163" d="M323.677 218.256a47.306 47.306 0 0 1 85.1-28.442 47.308 47.308 0 1 0-79.276 51.2 47.088 47.088 0 0 1-5.824-22.758z" data-name="Path 163" transform="translate(-320 -165.27)"/>
        </g>
        <path id="Path_164" d="M670.806 189.428c-.562-.54-5.288 3.009-5.288 3.009s-1.683.308-1.282 1.463-1.763 7.624-1.763 7.624l-.881-1.232a5.287 5.287 0 0 0-.7-3.109 2.15 2.15 0 0 0-.1-.149l.154-.053c-.058-.789-1.32-1.991-1.991-2.579v-.254c.042-.943.42-1.937 0-2.791-.475-.974-1.864-1.464-1.981-2.534-.07-.639.361-1.215.552-1.83.455-1.471-.49-2.972-1.392-4.239a5.927 5.927 0 0 0-1.1-1.274 5.361 5.361 0 0 0-1.327-.709 33.941 33.941 0 0 0-4.038-1.17 6.432 6.432 0 0 0-3.844-.077 1.89 1.89 0 0 0-.836.48 5.175 5.175 0 0 0-.565 1.282 4.569 4.569 0 0 1-1.691 1.523 2.43 2.43 0 0 0-1.279 1.787c0 1.068 1.22 1.74 1.628 2.735a5.01 5.01 0 0 1-.212 2.933 1.971 1.971 0 0 0-.025.968 2.079 2.079 0 0 0 .374.652c.252.334.523.645.792.963l-.124.048c-2.243-.231-3.686 2.618-3.686 2.618.1.022.2.047.3.075l-.1.124a12.164 12.164 0 0 0-1.646 2.88l-1.839 2.464s-.4-6.161.562-7.547-.881-2.233-.881-2.233-4.012-4.466-4.568-4.082 1.362 5.237 3.045 6.007a7.4 7.4 0 0 1-.167 2.541c-.2.634-1.282 7.316-1.282 7.316s-.961 5.621 3.447 2.842a16.867 16.867 0 0 0 5.656-6.853q.1-.206.185-.393a4.7 4.7 0 0 1 .089.627l.167 6.44a9.776 9.776 0 0 1-1.013 4.6l-1.964 3.983.219.067-.132.191c-1.294 1.9-3.493 6.184 1.035 8.366l6.017.771-.321 1.539a41.381 41.381 0 0 0-3.206 7.931 23.774 23.774 0 0 1-2.084 5.7l.185.1a8.797 8.797 0 0 0-.117.135 2.905 2.905 0 0 0-.7 1.458l-.816 1.157s-.321 4.774.321 5.93a4.164 4.164 0 0 0 2.507 1.267 1.651 1.651 0 0 0 1.877-2.422l-.01-.017h-.015a16.415 16.415 0 0 1-.511-4.105c.047-.261.09-.52.112-.784a2.77 2.77 0 0 1 .311-.991c.027-.052.055-.1.084-.152l.087.037c.269.115.535.224.787.319-.391.356-.669 1.093-.334 2.609a26.126 26.126 0 0 0 .321 4.389c.289.6 3.525 1.386 4.087.771s-.361-2.735-.361-2.735l-.029.02c-.185-1.229-.414-3.428.149-4.294.227-.349.448-.71.645-1.048l.122-.209c1.046.521 2.153.914 2.758.642 0 0 2.644-6.161 2.484-6.93s4.087-9.472 4.087-9.472 3.605-4.012-.8-6.776c-1.4-.881-2.419-1.473-3.159-1.872l-.62-3.243a11.854 11.854 0 0 1 .167-5.125l.669-2.551.055-.217s1.683-3.465 1.6-5.083a1.17 1.17 0 0 1 .042-.373q.027.115.06.241a31.075 31.075 0 0 0 1.742 4.907c1.279 2.885 3.176 2.656 4.215 2.246a1.439 1.439 0 0 0 .888-1.04c.374-1.8 1.4-6.825 1.468-8.214a23.373 23.373 0 0 1 .4-3.234c2.646-1.548 4.89-4.242 4.328-4.782z" class="cls-10" data-name="Path 164" transform="translate(-539.853 -159.389)"/>
        <path id="Path_165" d="M721.7 531.121s-.353.707-.836 1.556c-.189.334-.4.694-.615 1.04-.764 1.222 0 5.115 0 5.115l-1.672.229-1.672-.836-.305-2.825v-2.066l1.906-2.131.836-.923z" class="cls-11" data-name="Path 165" transform="translate(-610.369 -451.737)"/>
        <g id="Group_57" class="cls-8" data-name="Group 57" transform="translate(108.134 78.543)">
            <path id="Path_166" d="M731.178 531.121s-.353.707-.836 1.556a20.718 20.718 0 0 1-2.136-1.314l-.147-.1-.078-.057.836-.923z" data-name="Path 166" transform="translate(-727.98 -530.28)"/>
        </g>
        <path id="Path_167" d="M728.272 395.846s-4.047 8.626-3.893 9.39-2.367 6.871-2.367 6.871c-.575.271-1.631-.119-2.628-.635a20.588 20.588 0 0 1-2.173-1.337l-.147-.1-.089-.064 6.642-18.4-5.877-4.311-.435-.319L714.68 385l8.023 1.451s.279-.035 1.755.791c.709.4 1.693.989 3.054 1.882 4.194 2.752.76 6.722.76 6.722z" class="cls-12" data-name="Path 167" transform="translate(-608.77 -330.74)"/>
        <g id="Group_58" class="cls-13" data-name="Group 58" transform="translate(105.91 54.26)">
            <path id="Path_168" d="M728.272 395.846s-4.047 8.626-3.893 9.39-2.367 6.871-2.367 6.871c-.575.271-1.631-.119-2.628-.635a20.588 20.588 0 0 1-2.173-1.337l-.147-.1-.089-.064 6.642-18.4-5.877-4.311-.435-.319L714.68 385l8.023 1.451s.279-.035 1.755.791c.709.4 1.693.989 3.054 1.882 4.194 2.752.76 6.722.76 6.722z" class="cls-14" data-name="Path 168" transform="translate(-714.68 -385)"/>
        </g>
        <path id="Path_169" d="M715.264 544.4s-1.986-.306-1.3 2.9a26.791 26.791 0 0 0 .306 4.346c.276.585 3.36 1.374 3.893.764s-.344-2.709-.344-2.709-2.251 1.641-2.863-.115.308-5.186.308-5.186z" class="cls-15" data-name="Path 169" transform="translate(-608.055 -463.491)"/>
        <path id="Path_170" d="M691.4 533.194a2.407 2.407 0 0 0-.52.722 2.829 2.829 0 0 0-.3.983c-.02.261-.062.52-.105.777a18.837 18.837 0 0 0 .54 4.312l-2.9.458-1.068-1.145-.229-2.519a9.128 9.128 0 0 0 .458-2.674 2.8 2.8 0 0 1 .669-1.672 4.591 4.591 0 0 1 .774-.767s3.293.991 2.681 1.525z" class="cls-11" data-name="Path 170" transform="translate(-585.566 -452.895)"/>
        <g id="Group_59" class="cls-8" data-name="Group 59" transform="translate(102.387 78.772)">
            <path id="Path_171" d="M697.047 533.178a2.4 2.4 0 0 0-.52.722 44.132 44.132 0 0 1-2.892-1.464l-.035-.018a4.6 4.6 0 0 1 .774-.767s3.284.992 2.673 1.527z" data-name="Path 171" transform="translate(-693.6 -531.65)"/>
        </g>
        <path id="Path_172" d="M691.3 393.556s-1.907 3.589-3.131 6.566c-.8 1.956-2.46 6.612-3.51 9.578l-.154.438c-.461 1.312-.769 2.2-.769 2.2a1.987 1.987 0 0 1-.6-.089 6.936 6.936 0 0 1-.6-.194l-.242-.092c-.241-.094-.5-.2-.75-.316-1.214-.542-2.507-1.247-2.977-1.5l-.177-.1a24.146 24.146 0 0 0 1.991-5.655 41.776 41.776 0 0 1 3.054-7.856l.306-1.528-5.727-.764c-4.314-2.156-2.218-6.407-.986-8.294a11.149 11.149 0 0 1 .68-.948l4.581 1s.722.231 2.327.941l.737.334c.9.413 2.006.944 3.343 1.626 4.504 2.281 2.604 4.653 2.604 4.653z" class="cls-14" data-name="Path 172" transform="translate(-576.07 -330.74)"/>
        <path id="Path_173" d="M689.08 550.579a1.621 1.621 0 0 1-1.788 2.4 3.923 3.923 0 0 1-2.384-1.257c-.61-1.145-.306-5.879-.306-5.879l.8-1.183s-.419 5.23.573 5.683a7.914 7.914 0 0 0 3.092.212z" class="cls-15" data-name="Path 173" transform="translate(-583.656 -463.713)"/>
        <path id="Path_174" d="M695.85 181.563a1.785 1.785 0 0 0-.8.476 5.5 5.5 0 0 0-.538 1.272 4.383 4.383 0 0 1-1.611 1.5 2.394 2.394 0 0 0-1.219 1.772c0 1.06 1.17 1.725 1.551 2.709a5.16 5.16 0 0 1-.2 2.908 2.031 2.031 0 0 0-.023.959 2.086 2.086 0 0 0 .358.647 16.532 16.532 0 0 1 2.146 3.034 9.394 9.394 0 0 1 .577 2.766 13.9 13.9 0 0 1 .027 4.07.411.411 0 0 0 0 .246.381.381 0 0 0 .2.167 4.011 4.011 0 0 0 5.431-2.006c.334-.757.463-1.671 1.125-2.163a.563.563 0 0 1 .269-.122.787.787 0 0 1 .435.145 4.28 4.28 0 0 0 2.858.288 2.657 2.657 0 0 0 1.553-.772c.754-.9.334-2.235.384-3.4.04-.934.4-1.921 0-2.766-.451-.966-1.777-1.451-1.887-2.507a4.884 4.884 0 0 1 .526-1.814c.433-1.459-.466-2.947-1.325-4.2a5.819 5.819 0 0 0-1.051-1.262 5.048 5.048 0 0 0-1.264-.7 30.884 30.884 0 0 0-3.844-1.158 5.819 5.819 0 0 0-3.678-.089z" class="cls-16" data-name="Path 174" transform="translate(-589.614 -161.09)"/>
        <path id="Path_175" d="M729.625 246.67H725.2v-7.177a13.376 13.376 0 0 0 .231-2.089v-.719a3.7 3.7 0 0 0-.684-2.231c-1.222-1.374 3.97-1.145 3.97-1.145a12.93 12.93 0 0 0 .619 1.849 11.242 11.242 0 0 0 1.488 2.619 6.061 6.061 0 0 0 2.018 1.717c3.042 1.527-3.217 7.176-3.217 7.176z" class="cls-11" data-name="Path 175" transform="translate(-616.995 -204.392)"/>
        <g id="Group_60" class="cls-8" data-name="Group 60" transform="translate(107.556 28.903)">
            <path id="Path_176" d="M729.3 235.157a4.053 4.053 0 0 1-3.9 1.528 3.7 3.7 0 0 0-.684-2.231c-1.222-1.374 3.97-1.145 3.97-1.145a12.914 12.914 0 0 0 .614 1.848z" data-name="Path 176" transform="translate(-724.526 -233.294)"/>
        </g>
        <circle id="Ellipse_85" cx="4.047" cy="4.047" r="4.047" class="cls-11" data-name="Ellipse 85" transform="translate(105.07 24.033)"/>
        <path id="Path_177" d="M791.341 246.069a24.05 24.05 0 0 0-.381 3.206c-.062 1.376-1.041 6.363-1.4 8.143a1.413 1.413 0 0 1-.846 1.031c-.993.406-2.8.633-4.011-2.226a31.656 31.656 0 0 1-1.66-4.864 13.126 13.126 0 0 1-.334-1.7l2.674-1.451a3.3 3.3 0 0 1 .632.811 5.422 5.422 0 0 1 .669 3.082l.836 1.222s2.061-6.413 1.671-7.558 1.222-1.451 1.222-1.451 4.5-3.51 5.04-2.977-1.593 3.204-4.112 4.732z" class="cls-11" data-name="Path 177" transform="translate(-665.428 -211.043)"/>
        <path id="Path_178" d="M648.388 238.254a18.052 18.052 0 0 1-.719 1.755 16.582 16.582 0 0 1-5.389 6.8c-4.2 2.748-3.283-2.825-3.283-2.825s1.028-6.626 1.222-7.253a7.924 7.924 0 0 0 .152-2.519c-1.6-.764-3.435-5.573-2.9-5.955s4.346 4.047 4.346 4.047 1.757.836.836 2.215-.535 7.481-.535 7.481l1.767-2.439a12.188 12.188 0 0 1 1.57-2.855c.334-.456.568-.732.568-.732z" class="cls-11" data-name="Path 178" transform="translate(-544.387 -200.174)"/>
        <g id="Group_61" class="cls-8" data-name="Group 61" transform="translate(117.278 37.162)">
            <path id="Path_179" d="M786 283.522c-.562.207-2.736 1.085-2.977 2.34a13.137 13.137 0 0 1-.334-1.7l2.674-1.451a3.3 3.3 0 0 1 .637.811z" data-name="Path 179" transform="translate(-782.69 -282.71)"/>
        </g>
        <g id="Group_62" class="cls-8" data-name="Group 62" transform="translate(101.067 35.792)">
            <path id="Path_180" d="M688.635 276.8a18.048 18.048 0 0 1-.719 1.755c-.1-.755-.53-2.688-2.216-3.311.334-.456.568-.732.568-.732z" data-name="Path 180" transform="translate(-685.7 -274.51)"/>
        </g>
        <g id="Group_63" class="cls-8" data-name="Group 63" transform="translate(108.2 33.012)">
            <path id="Path_181" d="M732.809 267.147h-4.429v-7.177a13.368 13.368 0 0 0 .231-2.089 2.754 2.754 0 0 1 .685 2.241l2.367 5.349 1.147-4.729-.381-.61 1.571-1.869a6.06 6.06 0 0 0 2.017 1.717c3.052 1.52-3.208 7.167-3.208 7.167z" data-name="Path 181" transform="translate(-728.38 -257.88)"/>
        </g>
        <g id="Group_64" class="cls-8" data-name="Group 64" transform="translate(100.953 54.26)">
            <path id="Path_182" d="M699.826 387.674s-3.47-.276-6.48-.406l-.3-.013c-.428-.017-.836-.03-1.235-.04a27.667 27.667 0 0 1-6.788-1.27 11.147 11.147 0 0 1 .677-.945l4.581 1s.722.231 2.327.941l-2.63-1.941 8.022 1.451s.279-.035 1.755.791z" data-name="Path 182" transform="translate(-685.02 -385)"/>
        </g>
        <path id="Path_183" d="M696.289 261l-.381-.61 1.695-2.028s3.5 1.713 4.411 1.337c0 0 2.215 1.839 2.29 2.9 0 0-3.206 1.068-3.131 2.674s-1.521 5.038-1.521 5.038l-.669 2.745a12.217 12.217 0 0 0-.167 5.081l.61 3.4s-4.811-.381-8.023-.458a27.824 27.824 0 0 1-6.871-1.3l1.874-3.943a10.029 10.029 0 0 0 .966-4.56l-.172-6.376s-.152-3.206-2.674-3.741c0 0 1.374-2.825 3.51-2.6 0 0 3.112-1.3 4.037-.421a2.75 2.75 0 0 1 .7 2.253l2.367 5.349z" class="cls-3" data-name="Path 183" transform="translate(-583.659 -224.834)"/>
        <g id="Group_65" class="cls-8" data-name="Group 65" transform="translate(105.064 22.251)">
            <path id="Path_184" d="M710.746 198.495c.614 0 1.095-.65 1.708-.617a1.739 1.739 0 0 1 .852.4 10.406 10.406 0 0 0 3.261 1.5 2.845 2.845 0 0 0 1.387.1 1.183 1.183 0 0 0 .933-.934 1.593 1.593 0 0 0-.08-.607 7.5 7.5 0 0 0-3.266-4.311 2.571 2.571 0 0 0-2.114-.443 4.191 4.191 0 0 0-1.5 1.3 5.715 5.715 0 0 1-1.17.949c-.334.2-.836.334-1.028.705-.367.702.203 1.951 1.017 1.958z" data-name="Path 184" transform="translate(-709.613 -193.5)"/>
        </g>
        <path id="Path_185" d="M710.746 197.585c.614 0 1.095-.65 1.708-.617a1.739 1.739 0 0 1 .852.4 10.406 10.406 0 0 0 3.261 1.5 2.844 2.844 0 0 0 1.387.1 1.183 1.183 0 0 0 .933-.934 1.593 1.593 0 0 0-.08-.607 7.5 7.5 0 0 0-3.266-4.311 2.571 2.571 0 0 0-2.114-.443 4.191 4.191 0 0 0-1.5 1.3 5.715 5.715 0 0 1-1.17.949c-.334.2-.836.334-1.028.705-.367.709.203 1.949 1.017 1.958z" class="cls-16" data-name="Path 185" transform="translate(-604.549 -170.491)"/>
        <path id="Path_186" d="M705.32 326.79s3.741 1.374 6.184.306l1.222.077a5.405 5.405 0 0 0 4.179.787" class="cls-17" data-name="Path 186" transform="translate(-600.974 -282.26)"/>
        <path id="Path_187" d="M809.342 313.09s-.61 1.451-.306 1.909" class="cls-17" data-name="Path 187" transform="translate(-687.284 -270.85)"/>
        <path id="Path_188" d="M665.58 310.35s.306 1.451 0 1.909" class="cls-17" data-name="Path 188" transform="translate(-567.876 -268.568)"/>
        <path id="Path_189" d="M995.512 508.14a16.7 16.7 0 0 0-3.045 17.37c3.948 10.376-6.766 27.633-6.766 27.633s.115-.017.334-.054a20.36 20.36 0 0 0 13.512-31.165c-2.977-4.537-5.414-9.859-4.035-13.784z" class="cls-3" data-name="Path 189" transform="translate(-834.489 -433.298)"/>
        <path id="Path_190" d="M995.512 508.84a16.7 16.7 0 0 0-3.045 17.37c3.948 10.376-6.766 27.631-6.766 27.631s.115-.017.334-.054a20.36 20.36 0 0 0 13.512-31.165c-2.977-4.535-5.414-9.857-4.035-13.782z" class="cls-18" data-name="Path 190" transform="translate(-834.489 -433.881)"/>
        <path id="Path_191" d="M995.5 508.14s-3.948 8.571 0 15.565.669 26.618-9.813 29.438" class="cls-19" data-name="Path 191" transform="translate(-834.481 -433.298)"/>
        <path id="Path_192" d="M999.056 676.925s-7.979-1.27-8.707 5.88S975 690.947 975 690.947l.274.182c12.068 7.923 23.606 5.046 21.866-5.474-.64-3.91-.588-7.837 1.916-8.73z" class="cls-3" data-name="Path 192" transform="translate(-825.578 -573.798)"/>
        <path id="Path_193" d="M999.089 677.36s-6.194 1.359-5.683 6.992-9.193 12.384-18.366 7.032" class="cls-19" data-name="Path 193" transform="translate(-825.611 -574.233)"/>
        <path id="Path_194" d="M953.971 732.061s-6.285-1.257-7.961-2.933-9.218-4.608-10.056-2.507-11.312 9.218-4.19 10.475 16.76 1.671 18.854.836 3.353-5.871 3.353-5.871z" class="cls-20" data-name="Path 194" transform="translate(-787.513 -614.651)"/>
        <path id="Path_195" d="M931.772 766.836c7.124 1.257 16.76 1.671 18.854.836 1.6-.638 2.7-3.7 3.142-5.131l.209.043s-1.257 5.028-3.351 5.865-11.732.42-18.854-.836c-2.056-.363-2.644-1.215-2.422-2.293.174.703.891 1.245 2.422 1.516z" class="cls-21" data-name="Path 195" transform="translate(-787.521 -645.175)"/>
    </g>
</svg>
